<?xml version="1.0" encoding="UTF-8"?>
<svg version="1.1" xmlns="http://www.w3.org/2000/svg" width="300" height="300">
<path d="M0 0 C5.77706101 0.28885305 10.01254019 2.93157654 14 7 C14 7.99 14 8.98 14 10 C14.99 10.33 15.98 10.66 17 11 C18.1875 14.0625 18.1875 14.0625 19 17 C20.22976562 16.57847656 21.45953125 16.15695313 22.7265625 15.72265625 C24.35929309 15.16902921 25.99211019 14.61565725 27.625 14.0625 C28.43324219 13.78470703 29.24148437 13.50691406 30.07421875 13.22070312 C46.91072807 7.54009226 66.25668121 8.24919794 83 14 C84.0621875 14.36222656 85.124375 14.72445312 86.21875 15.09765625 C103.90180225 21.8199506 121.21107485 35.93707233 129.125 53.49609375 C129.558125 54.54990234 129.558125 54.54990234 130 55.625 C132.51469321 59.8685448 134.54669463 60.43140507 139.171875 61.625 C139.77515625 61.74875 140.3784375 61.8725 141 62 C141 62.66 141 63.32 141 64 C138.03 65.485 138.03 65.485 135 67 C135.56710884 69.56707248 136.15286531 72.12739643 136.75 74.6875 C136.90726563 75.40873047 137.06453125 76.12996094 137.2265625 76.87304688 C138.33561217 81.54385221 139.82415455 84.29707095 143 88 C143 88.99 143 89.98 143 91 C142.01 91 141.02 91 140 91 C139.93530518 91.58789307 139.87061035 92.17578613 139.80395508 92.78149414 C136.76363908 119.54410406 128.86126008 140.88364256 108 159 C88.39441305 174.02692834 65.42924543 179.61965473 41.0703125 176.49609375 C22.34996829 172.84791977 7.3396886 164.32074018 -6 151 C-7.11375 149.90365234 -7.11375 149.90365234 -8.25 148.78515625 C-22.86273096 133.45891304 -29.449713 111.89997175 -28.9765625 91.01586914 C-28.34128521 75.66995205 -23.87763324 62.62003212 -17 49 C-18.35544922 49.54140625 -18.35544922 49.54140625 -19.73828125 50.09375 C-20.91777344 50.5578125 -22.09726563 51.021875 -23.3125 51.5 C-24.48425781 51.9640625 -25.65601562 52.428125 -26.86328125 52.90625 C-30 54 -30 54 -33 54 C-32.59579069 48.34106967 -30.79663015 45.97742206 -27 42 C-24 40 -24 40 -21 40 C-21 39.34 -21 38.68 -21 38 C-15.62039766 36.0923396 -10.38697825 34.56449638 -4.75 33.625 C-4.1725 33.41875 -3.595 33.2125 -3 33 C-2.67 32.01 -2.34 31.02 -2 30 C-10.67492587 24.04961115 -20.19820541 20.60893962 -30 17 C-30 16.01 -30 15.02 -30 14 C-22.99353799 10.74329266 -14.6084616 10.93559857 -7.25 13.125 C-1.60219795 15.30686808 3.7198909 18.7198909 8 23 C6.08964005 16.86673911 3.78228251 11.16862041 0.98828125 5.3828125 C0 3 0 3 0 0 Z " fill="#8A0B03" transform="translate(95,33)"/>
<path d="M0 0 C4.53770504 3.63563115 8.79946098 7.60860672 12.3828125 12.19921875 C17.75754877 19.0150075 24.64527171 22.46509057 32.8125 25.1875 C44.59760915 25.94582453 54.58328788 24.79453883 65.8125 21.1875 C68.14182713 20.50588589 70.47660528 19.84641821 72.8125 19.1875 C71.38270422 23.65663309 68.92426233 26.65230138 65.75 30 C65.25540283 30.52625977 64.76080566 31.05251953 64.2512207 31.59472656 C48.9235769 47.72908846 29.85640931 58.49848022 7.17578125 59.40625 C-16.05112883 59.99331599 -37.83653646 53.59301845 -54.96020508 37.36987305 C-56.38142695 35.98810999 -57.78487285 34.58813479 -59.1875 33.1875 C-59.93 32.45660156 -60.6725 31.72570312 -61.4375 30.97265625 C-65.53504355 26.67503733 -68.65987052 22.05201594 -71.625 16.9375 C-71.96756836 16.34670654 -72.31013672 15.75591309 -72.66308594 15.1472168 C-74.49046562 11.85616373 -75.68869494 8.92502521 -76.1875 5.1875 C-64.31366805 0.84109114 -52.54414546 -3.07963905 -40.1875 -5.8125 C-39.42695312 -6.00457031 -38.66640625 -6.19664062 -37.8828125 -6.39453125 C-24.38239596 -8.48807411 -11.33154647 -7.97484308 0 0 Z " fill="#EE6D01" transform="translate(148.1875,150.8125)"/>
<path d="M0 0 C21.73884093 -0.03684549 42.01711331 10.60814651 57.34765625 25.43359375 C63.14863982 31.35465197 68.02876901 38.39229654 71.1796875 46.05859375 C73.69438071 50.30213855 75.72638213 50.86499882 80.3515625 52.05859375 C80.95484375 52.18234375 81.558125 52.30609375 82.1796875 52.43359375 C82.1796875 53.09359375 82.1796875 53.75359375 82.1796875 54.43359375 C80.76571848 54.94117237 79.34837021 55.439343 77.9296875 55.93359375 C77.14078125 56.21203125 76.351875 56.49046875 75.5390625 56.77734375 C73.1796875 57.43359375 73.1796875 57.43359375 69.1796875 57.43359375 C69.1796875 56.77359375 69.1796875 56.11359375 69.1796875 55.43359375 C67.57186857 56.19677985 65.96855612 56.96946433 64.3671875 57.74609375 C63.47386719 58.17535156 62.58054687 58.60460937 61.66015625 59.046875 C59.37682774 60.32338149 57.98203896 61.58794255 56.1796875 63.43359375 C55.5196875 63.43359375 54.8596875 63.43359375 54.1796875 63.43359375 C54.3446875 62.50546875 54.5096875 61.57734375 54.6796875 60.62109375 C55.25717138 57.47738022 55.25717138 57.47738022 55.1796875 54.43359375 C56.1796875 52.24609375 56.1796875 52.24609375 57.1796875 50.43359375 C56.8496875 50.76359375 56.5196875 51.09359375 56.1796875 51.43359375 C54.8596875 51.43359375 53.5396875 51.43359375 52.1796875 51.43359375 C50.8596875 54.73359375 49.5396875 58.03359375 48.1796875 61.43359375 C47.1896875 61.43359375 46.1996875 61.43359375 45.1796875 61.43359375 C46.13281267 54.33445457 48.50600022 49.82744039 53.1796875 44.43359375 C49.40521503 46.16824493 47.04532751 48.41713058 44.1796875 51.43359375 C42.1796875 53.43359375 42.1796875 53.43359375 39.5546875 53.55859375 C38.7709375 53.51734375 37.9871875 53.47609375 37.1796875 53.43359375 C37.1796875 54.09359375 37.1796875 54.75359375 37.1796875 55.43359375 C39.1596875 55.92859375 39.1596875 55.92859375 41.1796875 56.43359375 C40.5609375 56.53671875 39.9421875 56.63984375 39.3046875 56.74609375 C36.81442266 57.30884748 36.81442266 57.30884748 35.1796875 60.43359375 C34.921875 61.26246094 34.6640625 62.09132812 34.3984375 62.9453125 C32.76359823 66.28310934 31.06799289 66.84173033 27.6796875 68.24609375 C26.7 68.66503906 25.7203125 69.08398438 24.7109375 69.515625 C22.1796875 70.43359375 22.1796875 70.43359375 20.1796875 70.43359375 C20.1796875 71.09359375 20.1796875 71.75359375 20.1796875 72.43359375 C22.8196875 72.43359375 25.4596875 72.43359375 28.1796875 72.43359375 C28.5096875 73.42359375 28.8396875 74.41359375 29.1796875 75.43359375 C20.9177285 80.02584888 20.9177285 80.02584888 16.1796875 79.43359375 C16.8396875 77.78359375 17.4996875 76.13359375 18.1796875 74.43359375 C17.1896875 73.93859375 17.1896875 73.93859375 16.1796875 73.43359375 C16.6746875 71.94859375 16.6746875 71.94859375 17.1796875 70.43359375 C17.8396875 70.43359375 18.4996875 70.43359375 19.1796875 70.43359375 C19.4478125 69.50546875 19.7159375 68.57734375 19.9921875 67.62109375 C21.09117121 64.67119009 21.80387311 63.37744189 24.1796875 61.43359375 C23.5196875 60.11359375 22.8596875 58.79359375 22.1796875 57.43359375 C21.0453125 57.92859375 19.9109375 58.42359375 18.7421875 58.93359375 C12.89154947 61.10432517 7.24650592 61.46999536 1.3671875 59.18359375 C-5.33670186 55.50302704 -6.98224059 50.98455816 -9.4765625 44.015625 C-10.54864671 41.27051784 -10.54864671 41.27051784 -12.9765625 40.5703125 C-13.585 40.52519531 -14.1934375 40.48007813 -14.8203125 40.43359375 C-14.4903125 39.44359375 -14.1603125 38.45359375 -13.8203125 37.43359375 C-23.08915442 35.07193949 -23.08915442 35.07193949 -32.5703125 34.37109375 C-33.6428125 34.39171875 -34.7153125 34.41234375 -35.8203125 34.43359375 C-36.4803125 33.77359375 -37.1403125 33.11359375 -37.8203125 32.43359375 C-34.73557366 30.65393673 -32.38098298 30.14922804 -28.8359375 30.01953125 C-27.43408203 29.96152344 -27.43408203 29.96152344 -26.00390625 29.90234375 C-24.55177734 29.8559375 -24.55177734 29.8559375 -23.0703125 29.80859375 C-21.59498047 29.75058594 -21.59498047 29.75058594 -20.08984375 29.69140625 C-17.66685213 29.59730949 -15.24386454 29.51167047 -12.8203125 29.43359375 C-13.1503125 28.44359375 -13.4803125 27.45359375 -13.8203125 26.43359375 C-15.92615688 25.62795737 -15.92615688 25.62795737 -18.3828125 25.24609375 C-19.62224609 25.00826172 -19.62224609 25.00826172 -20.88671875 24.765625 C-21.84384766 24.60126953 -21.84384766 24.60126953 -22.8203125 24.43359375 C-22.5078125 22.05859375 -22.5078125 22.05859375 -21.8203125 19.43359375 C-18.8203125 17.43359375 -18.8203125 17.43359375 -16.4453125 16.49609375 C-13.75961237 15.49163206 -13.75961237 15.49163206 -11.2578125 13.87109375 C-8.8203125 12.43359375 -8.8203125 12.43359375 -6.6328125 11.93359375 C-4.41484969 11.53452729 -4.41484969 11.53452729 -2.8203125 8.43359375 C-3.41199219 8.65015625 -4.00367188 8.86671875 -4.61328125 9.08984375 C-12.46178877 11.85538637 -12.46178877 11.85538637 -16.8203125 11.43359375 C-16.8203125 10.11359375 -16.8203125 8.79359375 -16.8203125 7.43359375 C-19.7903125 7.43359375 -22.7603125 7.43359375 -25.8203125 7.43359375 C-21.64625369 3.25953494 -17.42733065 2.3325791 -11.6328125 2.24609375 C-8.79018426 2.38589514 -6.49181939 2.54309145 -3.8203125 3.43359375 C-1.8203125 0.43359375 -1.8203125 0.43359375 0 0 Z " fill="#9D1701" transform="translate(153.8203125,42.56640625)"/>
<path d="M0 0 C3 1 3 1 3.9831543 2.91772461 C4.3994812 4.14761108 4.3994812 4.14761108 4.82421875 5.40234375 C5.13037109 6.29244141 5.43652344 7.18253906 5.75195312 8.09960938 C6.06068359 9.03611328 6.36941406 9.97261719 6.6875 10.9375 C7.00783203 11.87013672 7.32816406 12.80277344 7.65820312 13.76367188 C10 20.66922641 10 20.66922641 10 23 C16.6 23 23.2 23 30 23 C29.2778977 29.49892069 28.58746442 33.99624166 26.125 39.75 C25.86847656 40.38292969 25.61195313 41.01585937 25.34765625 41.66796875 C24.60524141 43.46244884 23.80390393 45.23221126 23 47 C22.43539062 48.36125 22.43539062 48.36125 21.859375 49.75 C18.97761184 53.23717559 15.36901197 53.99501395 11.125 55.25 C10.32191406 55.50523437 9.51882812 55.76046875 8.69140625 56.0234375 C-3.8438373 59.94715459 -18.16316511 61.63406231 -30.32421875 55.6796875 C-36.66925722 51.69667065 -41.74603839 46.56416911 -46.5625 40.875 C-53.035491 33.28022602 -60.32044813 27.95721355 -70.40332031 26.70043945 C-72.92322479 26.56181946 -75.41400338 26.53258556 -77.9375 26.5625 C-79.30612183 26.57385986 -79.30612183 26.57385986 -80.70239258 26.58544922 C-94.08270539 26.90361339 -106.44850486 30.53687747 -118.98901367 34.98095703 C-120.03859253 35.35196533 -120.03859253 35.35196533 -121.109375 35.73046875 C-122.02154785 36.06147583 -122.02154785 36.06147583 -122.95214844 36.39916992 C-125.57669224 37.16919881 -128.30204138 37.55034023 -131 38 C-132.32 32.39 -133.64 26.78 -135 21 C-132.9375 21.144375 -130.875 21.28875 -128.75 21.4375 C-127.58984375 21.51871094 -126.4296875 21.59992188 -125.234375 21.68359375 C-122.667023 21.93474775 -120.4780162 22.37541805 -118 23 C-106.44479053 23.95680078 -95.27076517 21.42354231 -84.1796875 18.46484375 C-61.09281378 12.43783434 -39.14777239 12.02638132 -16 18 C-15.814375 16.824375 -15.814375 16.824375 -15.625 15.625 C-15 13 -15 13 -13 11 C-13 12.65 -13 14.3 -13 16 C-12.01 15.67 -11.02 15.34 -10 15 C-10.495 17.475 -10.495 17.475 -11 20 C-10.05125 19.95875 -9.1025 19.9175 -8.125 19.875 C-3.29272342 19.85515492 1.30627004 20.94225804 6 22 C5.3783476 19.76989746 4.7525397 17.54095304 4.125 15.3125 C3.60292969 13.45044922 3.60292969 13.45044922 3.0703125 11.55078125 C2.0900715 8.09460361 2.0900715 8.09460361 0.8671875 5.23046875 C0 3 0 3 0 0 Z " fill="#BF2601" transform="translate(202,118)"/>
<path d="M0 0 C5.77706101 0.28885305 10.01254019 2.93157654 14 7 C14 7.99 14 8.98 14 10 C14.99 10.33 15.98 10.66 17 11 C18.1875 14.0625 18.1875 14.0625 19 17 C20.22976562 16.57847656 21.45953125 16.15695313 22.7265625 15.72265625 C24.35929309 15.16902921 25.99211019 14.61565725 27.625 14.0625 C28.43324219 13.78470703 29.24148437 13.50691406 30.07421875 13.22070312 C36.97589498 10.89208879 43.04864982 9.86838349 50.375 9.9375 C51.62023437 9.94652344 52.86546875 9.95554687 54.1484375 9.96484375 C55.55996094 9.98224609 55.55996094 9.98224609 57 10 C56.67 11.65 56.34 13.3 56 15 C55.505 14.01 55.505 14.01 55 13 C53.68 13.33 52.36 13.66 51 14 C51 13.34 51 12.68 51 12 C45.24237834 13.08896667 39.60752181 14.29336293 34 16 C37.63 16 41.26 16 45 16 C43.515 16.495 43.515 16.495 42 17 C42 18.32 42 19.64 42 21 C42.59167969 20.7834375 43.18335938 20.566875 43.79296875 20.34375 C51.64147627 17.57820738 51.64147627 17.57820738 56 18 C55.375 19.875 55.375 19.875 54 22 C52.0187415 22.72045764 50.01495907 23.38001259 48 24 C45.99384866 25.32405988 43.99330842 26.65668346 42 28 C41.2575 28.144375 40.515 28.28875 39.75 28.4375 C39.1725 28.623125 38.595 28.80875 38 29 C36.70339566 31.49034386 36.70339566 31.49034386 36 34 C38.97 34.33 41.94 34.66 45 35 C45.495 36.98 45.495 36.98 46 39 C43.35478316 39.88173895 41.60402009 40.16631815 38.875 40.28125 C38.08609375 40.31863281 37.2971875 40.35601562 36.484375 40.39453125 C34.828125 40.46484375 33.171875 40.53515625 31.515625 40.60546875 C30.72671875 40.64285156 29.9378125 40.68023437 29.125 40.71875 C28.40570313 40.74904297 27.68640625 40.77933594 26.9453125 40.81054688 C24.78447166 40.94807506 24.78447166 40.94807506 22 42 C22.33 42.33 22.66 42.66 23 43 C24.92971561 43 26.85954805 42.99661302 28.7890625 42.96875 C31.9283093 43.01312098 34.90563027 43.48427171 38 44 C38 44.66 38 45.32 38 46 C36.02 46.99 34.04 47.98 32 49 C33.07401108 51.91517292 33.77810176 53.77810176 36 56 C35.625 58.125 35.625 58.125 35 60 C34.67 59.01 34.34 58.02 34 57 C33.34 57 32.68 57 32 57 C31.67 56.34 31.34 55.68 31 55 C31 56.98 31 58.96 31 61 C27.11024581 57.40945767 24.10267805 53.26101118 21 49 C20.67 49.99 20.34 50.98 20 52 C19.505 52.99 19.505 52.99 19 54 C18.67 53.01 18.34 52.02 18 51 C15.525 51.495 15.525 51.495 13 52 C13 51.34 13 50.68 13 50 C13.66 50 14.32 50 15 50 C14.505 48.02 14.505 48.02 14 46 C12.35 48.64 10.7 51.28 9 54 C8.01 53.67 7.02 53.34 6 53 C5.896875 53.639375 5.79375 54.27875 5.6875 54.9375 C5.460625 55.618125 5.23375 56.29875 5 57 C4.01 57.33 3.02 57.66 2 58 C1.32843384 59.93618425 1.32843384 59.93618425 1 62 C0.505 62.99 0.505 62.99 0 64 C-0.66 64 -1.32 64 -2 64 C-2.2475 64.7425 -2.495 65.485 -2.75 66.25 C-4.1135157 69.24973455 -5.45872215 70.92077267 -8 73 C-8.99 73 -9.98 73 -11 73 C-11.75753129 62.73124254 -8.984188 56.92983478 -2.3671875 49.25 C-1 48 -1 48 1 48 C1 47.01 1 46.02 1 45 C-7.85668683 44.67498397 -15.1932224 47.8005948 -23.18066406 51.20507812 C-24.01823242 51.56150391 -24.85580078 51.91792969 -25.71875 52.28515625 C-26.47091797 52.61394775 -27.22308594 52.94273926 -27.99804688 53.28149414 C-30 54 -30 54 -33 54 C-32.59579069 48.34106967 -30.79663015 45.97742206 -27 42 C-24 40 -24 40 -21 40 C-21 39.34 -21 38.68 -21 38 C-15.62039766 36.0923396 -10.38697825 34.56449638 -4.75 33.625 C-4.1725 33.41875 -3.595 33.2125 -3 33 C-2.67 32.01 -2.34 31.02 -2 30 C-10.67492587 24.04961115 -20.19820541 20.60893962 -30 17 C-30 16.01 -30 15.02 -30 14 C-22.99353799 10.74329266 -14.6084616 10.93559857 -7.25 13.125 C-1.60219795 15.30686808 3.7198909 18.7198909 8 23 C6.08964005 16.86673911 3.78228251 11.16862041 0.98828125 5.3828125 C0 3 0 3 0 0 Z " fill="#840404" transform="translate(95,33)"/>
<path d="M0 0 C4.53770504 3.63563115 8.79946098 7.60860672 12.3828125 12.19921875 C17.75754877 19.0150075 24.64527171 22.46509057 32.8125 25.1875 C44.59760915 25.94582453 54.58328788 24.79453883 65.8125 21.1875 C68.14182713 20.50588589 70.47660528 19.84641821 72.8125 19.1875 C71.37075395 23.747441 68.79106437 26.77716659 65.5625 30.1875 C65.09714844 30.69539063 64.63179687 31.20328125 64.15234375 31.7265625 C60.92694904 35.1918626 57.64280225 38.39413041 53.8125 41.1875 C52.8225 40.8575 51.8325 40.5275 50.8125 40.1875 C48.76006081 40.19163382 46.70730479 40.20103581 44.65551758 40.25292969 C33.59652635 40.52679489 25.28495008 39.15926201 15.8125 33.1875 C15.8125 32.5275 15.8125 31.8675 15.8125 31.1875 C14.3275 30.6925 14.3275 30.6925 12.8125 30.1875 C12.8125 29.5275 12.8125 28.8675 12.8125 28.1875 C11.8225 28.1875 10.8325 28.1875 9.8125 28.1875 C9.8125 27.5275 9.8125 26.8675 9.8125 26.1875 C9.1525 26.1875 8.4925 26.1875 7.8125 26.1875 C7.8125 25.5275 7.8125 24.8675 7.8125 24.1875 C7.131875 23.919375 6.45125 23.65125 5.75 23.375 C4.780625 22.983125 3.81125 22.59125 2.8125 22.1875 C1.61625 21.713125 0.42 21.23875 -0.8125 20.75 C-5.37721848 18.63670441 -5.37721848 18.63670441 -7.1875 16.1875 C-7.1875 15.5275 -7.1875 14.8675 -7.1875 14.1875 C-8.2703125 13.754375 -8.2703125 13.754375 -9.375 13.3125 C-11.05867846 12.63902862 -12.72816154 11.92494853 -14.359375 11.1328125 C-18.007744 9.91333004 -21.44947913 9.89569775 -25.25 9.9375 C-25.95705078 9.92976563 -26.66410156 9.92203125 -27.39257812 9.9140625 C-31.20630848 9.92838637 -33.92198544 10.2001167 -37.1875 12.1875 C-39.51298007 12.88106423 -41.84630445 13.54899212 -44.1875 14.1875 C-45.1775 14.5175 -46.1675 14.8475 -47.1875 15.1875 C-46.8575 16.1775 -46.5275 17.1675 -46.1875 18.1875 C-48.6875 19.6875 -48.6875 19.6875 -51.1875 21.1875 C-51.97125 21.703125 -52.755 22.21875 -53.5625 22.75 C-56.67490856 24.45441421 -59.75870379 25.31349312 -63.1875 26.1875 C-63.1875 25.5275 -63.1875 24.8675 -63.1875 24.1875 C-63.8475 24.1875 -64.5075 24.1875 -65.1875 24.1875 C-66.85153076 21.65527927 -68.27876228 19.0232279 -69.75 16.375 C-70.224375 15.653125 -70.69875 14.93125 -71.1875 14.1875 C-71.8475 14.1875 -72.5075 14.1875 -73.1875 14.1875 C-74.1775 11.2175 -75.1675 8.2475 -76.1875 5.1875 C-64.30507129 0.85333543 -52.54819123 -3.07874427 -40.1875 -5.8125 C-39.42695312 -6.00457031 -38.66640625 -6.19664062 -37.8828125 -6.39453125 C-24.38239596 -8.48807411 -11.33154647 -7.97484308 0 0 Z " fill="#EF7301" transform="translate(148.1875,150.8125)"/>
<path d="M0 0 C-1 3 -1 3 -3.3125 4.8125 C-9.35882519 9.73392748 -11.84984201 15.76267353 -12.625 23.3125 C-12.75724874 24.87440317 -12.88465396 26.43675768 -13 28 C-8.53195417 25.76597708 -6.67266538 23.14723939 -4 19 C-3.34 19 -2.68 19 -2 19 C-1.731875 18.05125 -1.46375 17.1025 -1.1875 16.125 C0 13 0 13 3 11 C3.33 10.01 3.66 9.02 4 8 C4.66 8 5.32 8 6 8 C5.39767592 12.67475406 3.37064578 16.40161535 1.1875 20.5 C-6.04156317 34.54586521 -8.93938863 47.30587047 -7 63 C-14.85546636 63.31918373 -22.26940505 62.35709504 -30 61 C-31.93476599 41.33859426 -30.40301926 19.43627491 -18 3 C-13.26317642 -0.65380849 -5.65248062 -2.03489302 0 0 Z " fill="#570114" transform="translate(97,78)"/>
<path d="M0 0 C5.80005643 1.83668454 9.88740562 4.57715545 13.12109375 9.81640625 C14.19946483 12.49555928 14.26583826 14.61743716 14.25 17.5 C14.25773437 18.90765625 14.25773437 18.90765625 14.265625 20.34375 C13.98977181 23.10228193 13.6066223 24.74344958 12 27 C9.67843403 27.40729228 7.3431213 27.74438677 5 28 C4.67 28.66 4.34 29.32 4 30 C5.32 30.66 6.64 31.32 8 32 C2.20473128 35.50766265 -1.21223652 36.62313894 -8 36 C-13.30767134 34.5956356 -17.26095132 31.90254032 -20.09765625 27.16796875 C-21.13006804 24.68749886 -21.20362247 22.92316382 -21.125 20.25 C-21.10695312 19.45078125 -21.08890625 18.6515625 -21.0703125 17.828125 C-21.03550781 16.92320313 -21.03550781 16.92320313 -21 16 C-18.16032769 16 -15.76264289 16.40267181 -13 17 C-14.3089572 13.87802522 -14.3089572 13.87802522 -17 12 C-17.625 8.9375 -17.625 8.9375 -18 6 C-12.11589623 1.32610197 -7.61573078 -1.39482249 0 0 Z " fill="#FCD968" transform="translate(167,67)"/>
<path d="M0 0 C9.02983152 2.25745788 14.12345924 8.03410874 19.75 15 C25.70183544 22.3138333 32.04559161 26.0151972 41 29 C52.84429932 29.76213318 62.64455174 28.51669911 74 25 C76.99100004 24.27418399 79.98797908 23.63410967 83 23 C78.49700488 29.55313924 73.34138835 36.15501187 67 41 C65.10058594 40.61254883 65.10058594 40.61254883 63 40 C60.91826542 40.00408985 58.8361943 40.01256865 56.75512695 40.06542969 C45.73042072 40.34135833 37.44157766 38.95229896 28 33 C28 32.34 28 31.68 28 31 C27.01 30.67 26.02 30.34 25 30 C25 29.34 25 28.68 25 28 C24.01 28 23.02 28 22 28 C22 27.34 22 26.68 22 26 C21.34 26 20.68 26 20 26 C20 25.34 20 24.68 20 24 C19.34 24 18.68 24 18 24 C18 23.01 18 22.02 18 21 C17.34 21 16.68 21 16 21 C16 20.34 16 19.68 16 19 C15.29875 18.7525 14.5975 18.505 13.875 18.25 C9.9835513 16.55806578 6.6437747 14.20567615 3.2265625 11.69921875 C-2.23950225 7.91759436 -7.45149667 6.80652523 -14 6 C-13.67 5.34 -13.34 4.68 -13 4 C-11.22880197 4.14133499 -9.45804713 4.28823208 -7.6875 4.4375 C-6.70136719 4.51871094 -5.71523437 4.59992188 -4.69921875 4.68359375 C-2 5 -2 5 1 6 C1 6.66 1 7.32 1 8 C2.32 8.33 3.64 8.66 5 9 C3.9509598 7.92078122 3.9509598 7.92078122 2.5 6.75 C0.63010145 4.56845169 0.37960375 2.80906774 0 0 Z " fill="#FA9F02" transform="translate(136,151)"/>
<path d="M0 0 C10.64818075 2.9040493 10.64818075 2.9040493 14.4375 4.9375 C15.26171875 7.07421875 15.26171875 7.07421875 15.4375 8.9375 C16.200625 8.97875 16.96375 9.02 17.75 9.0625 C20.4375 9.9375 20.4375 9.9375 22 12.75 C22.474375 13.801875 22.94875 14.85375 23.4375 15.9375 C25.89880241 18.87518353 27.60325347 20.3897505 31.4375 20.9375 C31.4375 21.5975 31.4375 22.2575 31.4375 22.9375 C32.51 23.205625 33.5825 23.47375 34.6875 23.75 C38.07007802 24.82114971 39.75617178 25.77226814 42.4375 27.9375 C23.27979163 28.45788041 0.69891117 27.40750399 -14.5625 13.9375 C-14.5625 9.60348665 -14.13186861 8.30425887 -11.5625 4.9375 C-9.125 3.8125 -9.125 3.8125 -6.5625 2.9375 C-5.923125 2.380625 -5.28375 1.82375 -4.625 1.25 C-2.5625 -0.0625 -2.5625 -0.0625 0 0 Z " fill="#D04402" transform="translate(117.5625,182.0625)"/>
<path d="M0 0 C1.670625 0.061875 1.670625 0.061875 3.375 0.125 C2.385 0.62 2.385 0.62 1.375 1.125 C1.375 1.785 1.375 2.445 1.375 3.125 C1.96925781 3.16238281 2.56351563 3.19976562 3.17578125 3.23828125 C9.74371367 3.75922146 16.18690394 4.77779115 22.375 7.125 C23.55329199 9.48158397 23.41914372 10.65073236 23.25390625 13.2578125 C23.18925171 14.34666748 23.18925171 14.34666748 23.12329102 15.45751953 C23.06197998 16.37903809 23.00066895 17.30055664 22.9375 18.25 C22.751875 21.17875 22.56625 24.1075 22.375 27.125 C15.445 27.125 8.515 27.125 1.375 27.125 C0.405625 24.815 -0.56375 22.505 -1.5625 20.125 C-1.86663818 19.41472656 -2.17077637 18.70445312 -2.48413086 17.97265625 C-4.38354614 13.33232063 -5.18454827 9.12050311 -5.625 4.125 C-0.33341026 5.52571493 2.14978044 8.97987245 5.375 13.125 C5.045 13.785 4.715 14.445 4.375 15.125 C3.715 14.795 3.055 14.465 2.375 14.125 C3.30637592 15.42108947 4.2453566 16.71171632 5.1875 18 C5.70957031 18.71929687 6.23164063 19.43859375 6.76953125 20.1796875 C8.40772777 22.35528655 8.40772777 22.35528655 11.375 24.125 C11.24222656 23.53332031 11.10945313 22.94164062 10.97265625 22.33203125 C10.06494822 18.27053475 9.1658887 14.21125829 8.375 10.125 C7.715 10.125 7.055 10.125 6.375 10.125 C5.653125 9.361875 4.93125 8.59875 4.1875 7.8125 C0.96103234 4.7294309 -1.49296474 3.66438569 -5.625 2.125 C-3.625 0.125 -3.625 0.125 0 0 Z " fill="#5F010A" transform="translate(210.625,113.875)"/>
<path d="M0 0 C13.65502883 -0.60990203 23.33748065 0.69817873 34 10 C37.07377782 12.82760947 39.99743098 15.71561432 42.5703125 19.01171875 C47.94504877 25.8275075 54.83277171 29.27759057 63 32 C74.78510915 32.75832453 84.77078788 31.60703883 96 28 C98.32932713 27.31838589 100.66410528 26.65891821 103 26 C102.03664702 28.4712375 101.50170417 29.73772053 99.1081543 30.98901367 C98.35445557 31.21306885 97.60075684 31.43712402 96.82421875 31.66796875 C95.99599609 31.92126953 95.16777344 32.17457031 94.31445312 32.43554688 C93.01411133 32.80776367 93.01411133 32.80776367 91.6875 33.1875 C90.83220703 33.44724609 89.97691406 33.70699219 89.09570312 33.97460938 C76.2117553 37.83679978 62.00963364 39.6884626 49.5390625 33.5390625 C43.50458395 29.88124012 39.32860907 25.51948161 35.0625 19.9375 C30.84897709 14.47737268 26.02691961 10.88494109 19.796875 7.96875 C18 7 18 7 17 5 C14.32522243 4.41342597 11.70094451 3.92231263 9 3.5 C6.29905549 3.07768737 3.67477757 2.58657403 1 2 C0.67 1.34 0.34 0.68 0 0 Z " fill="#EB9151" transform="translate(118,144)"/>
<path d="M0 0 C7.74414915 3.76511119 13.32205555 8.13253029 17.12109375 16.03125 C17.79189809 18.47297781 18.0126649 20.48317211 18.12109375 23.03125 C17.44046875 22.350625 16.75984375 21.67 16.05859375 20.96875 C15.37023437 20.28619141 15.37023437 20.28619141 14.66796875 19.58984375 C13.6002283 18.51401435 12.5489842 17.42164783 11.51171875 16.31640625 C6.75386087 11.32938549 1.72864831 7.23376819 -4.87890625 5.03125 C-4.21890625 6.68125 -3.55890625 8.33125 -2.87890625 10.03125 C-8.01647093 9.39108027 -12.46680806 7.83424667 -17.25390625 5.96875 C-17.98996094 5.68708984 -18.72601563 5.40542969 -19.484375 5.11523438 C-21.28447985 4.42558382 -23.08196835 3.72911068 -24.87890625 3.03125 C-24.87890625 2.04125 -24.87890625 1.05125 -24.87890625 0.03125 C-17.22580081 -3.52602679 -7.79273419 -3.08849648 0 0 Z " fill="#940305" transform="translate(89.87890625,46.96875)"/>
<path d="M0 0 C0.495 1.485 0.495 1.485 1 3 C0.154375 2.98839844 -0.69125 2.97679688 -1.5625 2.96484375 C-7.81560618 2.91510313 -13.82005931 3.03059754 -20 4 C-20 4.66 -20 5.32 -20 6 C-19.34 6 -18.68 6 -18 6 C-18 6.99 -18 7.98 -18 9 C-22.75914697 11.16115853 -27.54163305 13.25979008 -32.375 15.25 C-33.18710938 15.58515625 -33.99921875 15.9203125 -34.8359375 16.265625 C-37 17 -37 17 -40 17 C-39.59579069 11.34106967 -37.79663015 8.97742206 -34 5 C-31 3 -31 3 -28 3 C-28 2.34 -28 1.68 -28 1 C-19.338656 -2.86667143 -9.05065399 -3.01688466 0 0 Z " fill="#B51903" transform="translate(102,70)"/>
<path d="M0 0 C0 0.66 0 1.32 0 2 C1.98 1.67 3.96 1.34 6 1 C8.39748106 6.73310689 9.58411954 11.80481527 10 18 C8.865625 17.360625 7.73125 16.72125 6.5625 16.0625 C-0.92047268 12.35400737 -7.16039002 12.60825458 -15 15 C-16.33153101 15.34046152 -17.66444262 15.67569247 -19 16 C-15.44879196 8.74961691 -8.82497688 0 0 0 Z " fill="#6A0104" transform="translate(223,98)"/>
<path d="M0 0 C0.495 0.495 0.495 0.495 1 1 C4.41775599 1.65581941 7.83859238 2.24892093 11.2734375 2.80664062 C13.19437443 3.14124426 15.09940737 3.56444752 17 4 C17.495 4.99 17.495 4.99 18 6 C17.25540527 5.98428955 16.51081055 5.9685791 15.74365234 5.95239258 C-2.20577082 5.62349098 -17.19909171 6.24163786 -34 13 C-34.72574219 13.26941406 -35.45148438 13.53882813 -36.19921875 13.81640625 C-38.31667421 14.60210033 -38.31667421 14.60210033 -41 16 C-41.33 16.99 -41.66 17.98 -42 19 C-42.66 19 -43.32 19 -44 19 C-44.66 16.69 -45.32 14.38 -46 12 C-11.47584187 -0.63754677 -11.47584187 -0.63754677 0 0 Z " fill="#E38334" transform="translate(118,144)"/>
<path d="M0 0 C7.11513755 -0.53699151 12.44995746 1.30292366 19 4 C17.66412214 10.43650243 17.66412214 10.43650243 14.9375 12.75 C11.0309053 14.41238072 7.05671229 15.75382041 3 17 C3 17.66 3 18.32 3 19 C5.64 19 8.28 19 11 19 C11.33 19.99 11.66 20.98 12 22 C3.738041 26.59225513 3.738041 26.59225513 -1 26 C-0.34 24.35 0.32 22.7 1 21 C0.34 20.67 -0.32 20.34 -1 20 C-0.505 18.515 -0.505 18.515 0 17 C0.66 17 1.32 17 2 17 C2.268125 16.071875 2.53625 15.14375 2.8125 14.1875 C3.91148371 11.23759634 4.62418561 9.94384814 7 8 C5.6910428 4.87802522 5.6910428 4.87802522 3 3 C1.9805881 2.01979625 0.97753644 1.02196992 0 0 Z " fill="#901401" transform="translate(171,96)"/>
<path d="M0 0 C2.5654594 2.5654594 2.54046087 4.47686668 3 8 C3.99 8.33 4.98 8.66 6 9 C6.6875 11.0625 6.6875 11.0625 7 13 C2.25 13.125 2.25 13.125 0 12 C-0.33 14.31 -0.66 16.62 -1 19 C-1.28875 18.38125 -1.5775 17.7625 -1.875 17.125 C-3.52703842 14.00448298 -4.62072216 13.12642595 -8 12 C-7.67 11.01 -7.34 10.02 -7 9 C-16.26884192 6.63834574 -16.26884192 6.63834574 -25.75 5.9375 C-26.8225 5.958125 -27.895 5.97875 -29 6 C-29.66 5.34 -30.32 4.68 -31 4 C-23.65769192 -0.58667641 -12.2188629 1.92211634 -4 3 C-3.01 3 -2.02 3 -1 3 C-0.67 2.01 -0.34 1.02 0 0 Z " fill="#AE1202" transform="translate(147,71)"/>
<path d="M0 0 C3.59757585 1.54895627 6.12532462 3.73695948 9 6.375 C9.845625 7.14585937 10.69125 7.91671875 11.5625 8.7109375 C13.11562682 10.16948288 14.64041187 11.65924752 16.125 13.1875 C18.50230503 15.48556153 21.00606739 16.62778089 24 18 C25.33333333 18.66666667 26.66666667 19.33333333 28 20 C28 20.66 28 21.32 28 22 C34.27 22.66 40.54 23.32 47 24 C47 23.34 47 22.68 47 22 C44.03 22 41.06 22 38 22 C38 21.67 38 21.34 38 21 C39.25490234 20.96132812 39.25490234 20.96132812 40.53515625 20.921875 C49.9051348 20.46530905 58.03175684 18.67332333 67 16 C69.33203892 15.32873323 71.66607896 14.66470548 74 14 C73.03664702 16.4712375 72.50170417 17.73772053 70.1081543 18.98901367 C69.35445557 19.21306885 68.60075684 19.43712402 67.82421875 19.66796875 C66.58188477 20.04791992 66.58188477 20.04791992 65.31445312 20.43554688 C64.44755859 20.68369141 63.58066406 20.93183594 62.6875 21.1875 C61.40456055 21.57711914 61.40456055 21.57711914 60.09570312 21.97460938 C47.2117553 25.83679978 33.00963364 27.6884626 20.5390625 21.5390625 C11.81742341 16.25240742 5.60854242 8.41281362 0 0 Z " fill="#DE7F3D" transform="translate(147,156)"/>
<path d="M0 0 C1.86785156 0.01353516 1.86785156 0.01353516 3.7734375 0.02734375 C5.18496094 0.04474609 5.18496094 0.04474609 6.625 0.0625 C6.295 1.7125 5.965 3.3625 5.625 5.0625 C5.13 4.0725 5.13 4.0725 4.625 3.0625 C3.305 3.3925 1.985 3.7225 0.625 4.0625 C0.625 3.4025 0.625 2.7425 0.625 2.0625 C-7.81892939 3.56090083 -16.16656009 5.17936329 -23.375 10.0625 C-21.065 10.0625 -18.755 10.0625 -16.375 10.0625 C-20.17514774 14.617287 -24.03165546 19.01529259 -28.375 23.0625 C-29.035 23.0625 -29.695 23.0625 -30.375 23.0625 C-30.705 17.7825 -31.035 12.5025 -31.375 7.0625 C-28.50182985 6.07767124 -25.62667255 5.0995007 -22.75 4.125 C-21.94175781 3.84720703 -21.13351563 3.56941406 -20.30078125 3.28320312 C-13.39910502 0.95458879 -7.32635018 -0.06911651 0 0 Z " fill="#750204" transform="translate(145.375,42.9375)"/>
<path d="M0 0 C4.39718646 1.09929662 4.79997334 1.55450729 7.25 5.0625 C8.03117187 6.16271484 8.03117187 6.16271484 8.828125 7.28515625 C9.21484375 7.85105469 9.6015625 8.41695312 10 9 C10.38671875 8.3503125 10.7734375 7.700625 11.171875 7.03125 C11.95304687 5.77828125 11.95304687 5.77828125 12.75 4.5 C13.26046875 3.6646875 13.7709375 2.829375 14.296875 1.96875 C14.85890625 1.3190625 15.4209375 0.669375 16 0 C17.32 0 18.64 0 20 0 C20 5.61 20 11.22 20 17 C18.68 17 17.36 17 16 17 C15.67 14.36 15.34 11.72 15 9 C13.68 10.65 12.36 12.3 11 14 C9.1875 13.8125 9.1875 13.8125 7 13 C5.25 10.4375 5.25 10.4375 4 8 C3.67 11.3 3.34 14.6 3 18 C2.01 18 1.02 18 0 18 C0 12.06 0 6.12 0 0 Z " fill="#FAB330" transform="translate(63,225)"/>
<path d="M0 0 C3.9252025 3.70090521 6.94580156 7.54959656 10 12 C10 9.69 10 7.38 10 5 C10.66 5.33 11.32 5.66 12 6 C12 6.99 12 7.98 12 9 C12.66 9 13.32 9 14 9 C16.94723721 14.76633368 18.22695784 20.48306764 18 27 C17.34 27.66 16.68 28.32 16 29 C2 14.2893401 2 14.2893401 2 6 C1.34 6 0.68 6 0 6 C-0.38218767 4.34385343 -0.71395102 2.67542976 -1 1 C-0.67 0.67 -0.34 0.34 0 0 Z " fill="#A20902" transform="translate(115,81)"/>
<path d="M0 0 C8.76940504 1.22863818 14.72512075 8.47013515 20.37109375 14.7890625 C22.08040197 17.10913073 23.05342023 19.2886911 24 22 C21.69 21.34 19.38 20.68 17 20 C17 19.34 17 18.68 17 18 C16.07316406 17.95101562 15.14632812 17.90203125 14.19140625 17.8515625 C12.39509766 17.73941406 12.39509766 17.73941406 10.5625 17.625 C9.36753906 17.55539063 8.17257813 17.48578125 6.94140625 17.4140625 C5.97074219 17.27742188 5.00007813 17.14078125 4 17 C3.67 16.34 3.34 15.68 3 15 C4.65 14.34 6.3 13.68 8 13 C8 12.34 8 11.68 8 11 C6.21034453 9.63722914 6.21034453 9.63722914 4 8.375 C2.88625 7.70597656 2.88625 7.70597656 1.75 7.0234375 C1.1725 6.68570313 0.595 6.34796875 0 6 C0.33 5.34 0.66 4.68 1 4 C0.60061233 1.90178785 0.60061233 1.90178785 0 0 Z " fill="#5C0105" transform="translate(85,52)"/>
<path d="M0 0 C2.80863551 1.40431775 3.00033174 3.37463659 3.953125 6.22460938 C4.17484375 6.91361328 4.3965625 7.60261719 4.625 8.3125 C4.85445312 8.98990234 5.08390625 9.66730469 5.3203125 10.36523438 C6.44230901 13.78131304 7 16.3665148 7 20 C1.30948637 19.4618629 -4.34865884 18.8599867 -10 18 C-8.54217731 13.86950236 -6.45671242 10.61281238 -4 7 C-2.62858425 4.686319 -1.31431288 2.34698729 0 0 Z " fill="#710103" transform="translate(201,120)"/>
<path d="M0 0 C4.51586582 1.12896645 5.3357925 2.11402112 8.25 5.5625 C8.95640625 6.38878906 9.6628125 7.21507812 10.390625 8.06640625 C10.92171875 8.70449219 11.4528125 9.34257812 12 10 C12.33 7.03 12.66 4.06 13 1 C14.32 0.67 15.64 0.34 17 0 C17 5.61 17 11.22 17 17 C13 17 13 17 10.640625 14.8125 C9.85171875 13.884375 9.0628125 12.95625 8.25 12 C7.45078125 11.071875 6.6515625 10.14375 5.828125 9.1875 C5.22484375 8.465625 4.6215625 7.74375 4 7 C3.67 10.63 3.34 14.26 3 18 C2.01 18 1.02 18 0 18 C0 12.06 0 6.12 0 0 Z " fill="#F6B130" transform="translate(186,225)"/>
<path d="M0 0 C0.66 0.33 1.32 0.66 2 1 C1.67 1.99 1.34 2.98 1 4 C0.34 4 -0.32 4 -1 4 C-1.26941406 4.59167969 -1.53882812 5.18335937 -1.81640625 5.79296875 C-2.99307573 7.98708841 -4.24149599 9.50429216 -5.9375 11.3125 C-8.91069862 14.67097864 -10.45876934 17.80442765 -12 22 C-10.68 21.34 -9.36 20.68 -8 20 C-9.3042328 23.9126984 -10.78934739 26.37310241 -14 29 C-14.99 29 -15.98 29 -17 29 C-17.67165536 19.8953385 -15.81608302 14.35740644 -10.1875 7.25 C-7.15828213 3.88934099 -4.1041788 1.89423637 0 0 Z " fill="#A50C03" transform="translate(101,77)"/>
<path d="M0 0 C12.48180922 -0.37074681 12.48180922 -0.37074681 14.89453125 1.35546875 C16.47793508 3.71099176 16.41637778 5.22414816 16 8 C14.5 9.8125 14.5 9.8125 13 11 C14.98 13.97 14.98 13.97 17 17 C15.68 17 14.36 17 13 17 C12.38125 16.195625 11.7625 15.39125 11.125 14.5625 C9.18185563 11.70478106 9.18185563 11.70478106 5.75 11.1875 C4.8425 11.125625 3.935 11.06375 3 11 C3 13.31 3 15.62 3 18 C2.01 18 1.02 18 0 18 C0 12.06 0 6.12 0 0 Z M3 3 C3 4.65 3 6.3 3 8 C5.97 8 8.94 8 12 8 C12.33 6.68 12.66 5.36 13 4 C11.99163938 2.76732652 11.99163938 2.76732652 9.93359375 2.90234375 C8.69802734 2.91974609 8.69802734 2.91974609 7.4375 2.9375 C6.19806641 2.95103516 6.19806641 2.95103516 4.93359375 2.96484375 C3.97646484 2.98224609 3.97646484 2.98224609 3 3 Z " fill="#F8B231" transform="translate(133,225)"/>
<path d="M0 0 C0 0.66 0 1.32 0 2 C-1.41396902 2.50757862 -2.83131729 3.00574925 -4.25 3.5 C-5.43335938 3.91765625 -5.43335938 3.91765625 -6.640625 4.34375 C-9 5 -9 5 -13 5 C-13 4.34 -13 3.68 -13 3 C-14.60781893 3.7631861 -16.21113138 4.53587058 -17.8125 5.3125 C-18.70582031 5.74175781 -19.59914062 6.17101562 -20.51953125 6.61328125 C-22.80285976 7.88978774 -24.19764854 9.1543488 -26 11 C-26.66 11 -27.32 11 -28 11 C-26.48193696 5.20375931 -24.00256154 1.27780531 -19.1875 -2.375 C-12.29135005 -4.34532856 -6.44819812 -2.5076326 0 0 Z " fill="#9C0302" transform="translate(236,95)"/>
<path d="M0 0 C1.32 0 2.64 0 4 0 C5.3410005 2.4335567 6.67294856 4.87135301 8 7.3125 C8.3815625 8.00279297 8.763125 8.69308594 9.15625 9.40429688 C12 14.66015625 12 14.66015625 12 18 C10.0625 17.625 10.0625 17.625 8 17 C7.67 16.34 7.34 15.68 7 15 C4.41394668 14.5316735 4.41394668 14.5316735 1.4375 14.375 C0.42558594 14.30023438 -0.58632812 14.22546875 -1.62890625 14.1484375 C-2.80259766 14.07496094 -2.80259766 14.07496094 -4 14 C-4.33 15.32 -4.66 16.64 -5 18 C-5.99 18 -6.98 18 -8 18 C-7.39733215 13.49272353 -5.63400206 10.1412037 -3.4375 6.1875 C-2.9434668 5.2912793 -2.9434668 5.2912793 -2.43945312 4.37695312 C-1.63226733 2.91466002 -0.81695083 1.4568601 0 0 Z M1 5 C0.01 6.98 -0.98 8.96 -2 11 C0.31 11 2.62 11 5 11 C4.34 9.02 3.68 7.04 3 5 C2.34 5 1.68 5 1 5 Z " fill="#F8B031" transform="translate(106,225)"/>
<path d="M0 0 C1.32 0 2.64 0 4 0 C5.33819498 2.6226232 6.6707151 5.24786599 8 7.875 C8.3815625 8.62136719 8.763125 9.36773437 9.15625 10.13671875 C9.5171875 10.85214844 9.878125 11.56757813 10.25 12.3046875 C10.58515625 12.96452637 10.9203125 13.62436523 11.265625 14.30419922 C12 16 12 16 12 18 C10.0625 17.625 10.0625 17.625 8 17 C7.67 16.34 7.34 15.68 7 15 C4.41394668 14.5316735 4.41394668 14.5316735 1.4375 14.375 C0.42558594 14.30023438 -0.58632812 14.22546875 -1.62890625 14.1484375 C-2.80259766 14.07496094 -2.80259766 14.07496094 -4 14 C-4.33 15.32 -4.66 16.64 -5 18 C-5.99 18 -6.98 18 -8 18 C-7.39733215 13.49272353 -5.63400206 10.1412037 -3.4375 6.1875 C-2.9434668 5.2912793 -2.9434668 5.2912793 -2.43945312 4.37695312 C-1.63226733 2.91466002 -0.81695083 1.4568601 0 0 Z M1 4 C-0.485 7.465 -0.485 7.465 -2 11 C0.31 11 2.62 11 5 11 C3.92598892 8.08482708 3.22189824 6.22189824 1 4 Z " fill="#F9B131" transform="translate(226,225)"/>
<path d="M0 0 C1.11503906 -0.00515625 2.23007813 -0.0103125 3.37890625 -0.015625 C6.30305372 0.23832395 7.96835968 0.72867149 10.4375 2.25 C8.1275 3.57 5.8175 4.89 3.4375 6.25 C3.7675 7.57 4.0975 8.89 4.4375 10.25 C0.65510329 9.59309381 -2.78091526 8.529869 -6.375 7.1875 C-7.35082031 6.82527344 -8.32664062 6.46304688 -9.33203125 6.08984375 C-10.06808594 5.81269531 -10.80414063 5.53554688 -11.5625 5.25 C-11.5625 4.26 -11.5625 3.27 -11.5625 2.25 C-7.58303841 0.37556202 -4.38354886 -0.02031772 0 0 Z " fill="#D94205" transform="translate(76.5625,44.75)"/>
<path d="M0 0 C12.9963902 -0.58048393 22.6003748 0.40900527 33 9 C33 9.66 33 10.32 33 11 C29.30874486 10.40992369 26.49361424 9.34313811 23.1875 7.625 C17.6415941 4.99240171 12.24081838 3.89309522 6.21948242 2.98876953 C4.46982722 2.71612361 2.73280972 2.3646911 1 2 C0.67 1.34 0.34 0.68 0 0 Z " fill="#F19B50" transform="translate(118,144)"/>
<path d="M0 0 C11.02341476 0.48731559 18.36065826 1.61583953 27.03515625 8.50390625 C29.86771785 10.66070762 32.872719 12.30605612 36 14 C36 14.66 36 15.32 36 16 C36.66 16 37.32 16 38 16 C38 16.66 38 17.32 38 18 C33.9602122 16.7786688 30.43624858 15.48173509 27 13 C26.67 12.319375 26.34 11.63875 26 10.9375 C24.57178265 8.17032889 22.9028283 7.94510689 20 7 C19.28070313 6.67515625 18.56140625 6.3503125 17.8203125 6.015625 C14.32682479 4.75758234 10.85332302 4.30297168 7.1875 3.875 C6.14819336 3.74544922 6.14819336 3.74544922 5.08789062 3.61328125 C3.39266294 3.40283919 1.69642245 3.20058328 0 3 C0 2.01 0 1.02 0 0 Z " fill="#F28302" transform="translate(116,156)"/>
<path d="M0 0 C3.34249629 0.59687434 5.46436342 1.73603877 8 4 C8 4.66 8 5.32 8 6 C8.66 6 9.32 6 10 6 C12.43425238 10.96993194 13.34615998 14.34605369 13 20 C8.71095765 18.4114658 6.67654474 15.56872632 4 12 C4 11.34 4 10.68 4 10 C4.66 9.67 5.32 9.34 6 9 C5.566875 8.51789063 5.13375 8.03578125 4.6875 7.5390625 C4.130625 6.90742187 3.57375 6.27578125 3 5.625 C2.443125 4.99851562 1.88625 4.37203125 1.3125 3.7265625 C0 2 0 2 0 0 Z " fill="#A00703" transform="translate(209,118)"/>
<path d="M0 0 C-0.625 1.875 -0.625 1.875 -2 4 C-3.9812585 4.72045764 -5.98504093 5.38001259 -8 6 C-10.00615134 7.32405988 -12.00669158 8.65668346 -14 10 C-14.7425 10.144375 -15.485 10.28875 -16.25 10.4375 C-17.11625 10.7159375 -17.11625 10.7159375 -18 11 C-19.29660434 13.49034386 -19.29660434 13.49034386 -20 16 C-21.32 16 -22.64 16 -24 16 C-23.29149643 12.81173394 -22.52514723 9.89777973 -21 7 C-18.3203125 5.48828125 -18.3203125 5.48828125 -15.125 4.3125 C-10.88696552 2.74649357 -10.88696552 2.74649357 -6.7890625 0.86328125 C-4.45674001 -0.26214074 -2.55401172 -0.14188954 0 0 Z " fill="#7F0401" transform="translate(151,51)"/>
<path d="M0 0 C7.11513755 -0.53699151 12.44995746 1.30292366 19 4 C18.67 4.99 18.34 5.98 18 7 C15.23723823 6.47731534 12.6739124 5.89130413 10 5 C10.103125 5.721875 10.20625 6.44375 10.3125 7.1875 C9.8689435 11.17950847 8.04504127 12.52147804 5 15 C4.01 15 3.02 15 2 15 C2.680625 13.88625 2.680625 13.88625 3.375 12.75 C4.68640796 10.53069422 5.88280803 8.32032178 7 6 C5.15811388 3.94729537 5.15811388 3.94729537 3 3 C1.9805881 2.01979625 0.97753644 1.02196992 0 0 Z " fill="#AF2A01" transform="translate(171,96)"/>
<path d="M0 0 C-3.1055989 2.07039926 -5.55537852 2.8539026 -9.125 3.875 C-17.36188158 6.22416801 -17.36188158 6.22416801 -25 10 C-25.33 10.99 -25.66 11.98 -26 13 C-26.66 13 -27.32 13 -28 13 C-28.66 10.69 -29.32 8.38 -30 6 C-27.94409546 5.13007846 -25.87994664 4.27962311 -23.8125 3.4375 C-22.66394531 2.96183594 -21.51539062 2.48617187 -20.33203125 1.99609375 C-16.86303348 0.95905456 -15.40992903 1.11702008 -12 2 C-3.69686985 -0.22405272 -3.69686985 -0.22405272 0 0 Z " fill="#D9651F" transform="translate(102,150)"/>
<path d="M0 0 C2.91843445 2.626591 4.94517315 5.66976339 7 9 C7 9.66 7 10.32 7 11 C10.55003693 12.18334564 11.06304713 11.79896199 14.3125 10.25 C15.49585937 9.693125 15.49585937 9.693125 16.703125 9.125 C20.86426204 7.08792614 20.86426204 7.08792614 25 5 C25 4.01 25 3.02 25 2 C27.97 1.34 30.94 0.68 34 0 C28.07372962 6.29666227 22.3447661 11.13794559 13.78515625 13.1640625 C12.90150391 13.57785156 12.90150391 13.57785156 12 14 C11.18390871 16.02177553 11.18390871 16.02177553 11 18 C9.72528295 16.44066679 8.45539786 14.87738294 7.1875 13.3125 C6.47980469 12.44238281 5.77210937 11.57226562 5.04296875 10.67578125 C0 4.0707457 0 4.0707457 0 0 Z " fill="#DD4107" transform="translate(76,164)"/>
<path d="M0 0 C5.26059764 0.15941205 9.36326235 3.44823286 13 7 C14 9.875 14 9.875 14 12 C12.35 11.67 10.7 11.34 9 11 C9 10.34 9 9.68 9 9 C8.071875 8.855625 7.14375 8.71125 6.1875 8.5625 C3 8 3 8 0 7 C-0.38133299 5.0085944 -0.71325582 3.00720923 -1 1 C-0.67 0.67 -0.34 0.34 0 0 Z " fill="#C22603" transform="translate(224,112)"/>
<path d="M0 0 C3.71347527 2.70070929 4.27915194 6.7154087 5 11 C5.25 14.375 5.25 14.375 5 17 C4.34 17.66 3.68 18.32 3 19 C0.43692726 16.48166917 -1.96679484 13.96996983 -4 11 C-3.9375 7.5 -3.9375 7.5 -3 5 C-2.01 5.99 -1.02 6.98 0 8 C0 5.36 0 2.72 0 0 Z " fill="#A91A03" transform="translate(128,91)"/>
<path d="M0 0 C4.8749096 0.4431736 8.56586507 2.59464274 12 6 C12.6875 8.4375 12.6875 8.4375 12 11 C10 14.3125 10 14.3125 8 17 C6.35 16.67 4.7 16.34 3 16 C3.9590625 15.5978125 3.9590625 15.5978125 4.9375 15.1875 C7.33131686 14.11332248 7.33131686 14.11332248 8 11 C5.36 9.35 2.72 7.7 0 6 C0.33 5.34 0.66 4.68 1 4 C0.60061233 1.90178785 0.60061233 1.90178785 0 0 Z " fill="#6B0102" transform="translate(85,52)"/>
<path d="M0 0 C0.66 0 1.32 0 2 0 C1.36310966 2.90499982 0.4481633 5.40078778 -0.875 8.0625 C-1.20242187 8.73410156 -1.52984375 9.40570313 -1.8671875 10.09765625 C-3.03709099 12.06228729 -4.32072118 13.45986143 -6 15 C-6 14.34 -6 13.68 -6 13 C-7.32 13.99 -8.64 14.98 -10 16 C-10.43177893 9.73920552 -9.92739438 6.90924297 -6 2 C-5.01 3.485 -5.01 3.485 -4 5 C-3.38125 4.175 -2.7625 3.35 -2.125 2.5 C-1.42375 1.675 -0.7225 0.85 0 0 Z " fill="#990403" transform="translate(198,120)"/>
<path d="M0 0 C-0.93590504 1.1055189 -1.87379858 2.20935453 -2.8125 3.3125 C-3.59560547 4.23482422 -3.59560547 4.23482422 -4.39453125 5.17578125 C-5.87172469 6.85424679 -7.40039131 8.43882034 -9 10 C-9.33 9.01 -9.66 8.02 -10 7 C-10.81498562 8.6029053 -11.62689927 10.20737278 -12.4375 11.8125 C-12.88996094 12.70582031 -13.34242188 13.59914062 -13.80859375 14.51953125 C-15.0831605 17.03999478 -15.0831605 17.03999478 -16 20 C-16.99 20 -17.98 20 -19 20 C-17.45549409 13.53316631 -16.07884227 9.54422729 -11 5 C-10.13880866 2.82653432 -10.13880866 2.82653432 -10 1 C-6.59437148 0.22157062 -3.49234244 -0.09978121 0 0 Z " fill="#770202" transform="translate(202,116)"/>
<path d="M0 0 C2.26171875 0.6796875 2.26171875 0.6796875 4.6875 1.875 C5.49574219 2.26429687 6.30398437 2.65359375 7.13671875 3.0546875 C8.05904297 3.52261719 8.05904297 3.52261719 9 4 C8 6 8 6 5.75 7.25 C2.39922952 8.16384649 1.03002196 7.55829701 -2 6 C-1.34 7.65 -0.68 9.3 0 11 C-2.97 10.505 -2.97 10.505 -6 10 C-6.66 8.02 -7.32 6.04 -8 4 C-7.236875 3.71125 -6.47375 3.4225 -5.6875 3.125 C-2.84970692 2.03730987 -2.84970692 2.03730987 0 0 Z " fill="#C12003" transform="translate(87,46)"/>
<path d="M0 0 C5.77706101 0.28885305 10.01254019 2.93157654 14 7 C14 7.99 14 8.98 14 10 C14.99 10.33 15.98 10.66 17 11 C16.34 11.66 15.68 12.32 15 13 C15 12.34 15 11.68 15 11 C14.34 11 13.68 11 13 11 C12.34 9.68 11.68 8.36 11 7 C10.01 7.66 9.02 8.32 8 9 C7.67 8.67 7.34 8.34 7 8 C6.67 9.65 6.34 11.3 6 13 C2.67467889 10.30807339 1.47545057 6.93453485 0 3 C0 2.01 0 1.02 0 0 Z " fill="#B91E06" transform="translate(95,33)"/>
<path d="M0 0 C0.99 0 1.98 0 3 0 C3 5.61 3 11.22 3 17 C1.68 17 0.36 17 -1 17 C-1.02684679 14.35409986 -1.04676357 11.70846904 -1.0625 9.0625 C-1.07087891 8.30775391 -1.07925781 7.55300781 -1.08789062 6.77539062 C-1.09652441 4.85005687 -1.05224333 2.92464419 -1 1 C-0.67 0.67 -0.34 0.34 0 0 Z " fill="#EBB23D" transform="translate(166,225)"/>
<path d="M0 0 C0.66 0.66 1.32 1.32 2 2 C1.2575 2.639375 0.515 3.27875 -0.25 3.9375 C-5.39174819 9.09385543 -7.39626639 15.90613006 -8 23 C-10.31 21.02 -12.62 19.04 -15 17 C-14.01 16.67 -13.02 16.34 -12 16 C-8.52420403 13.16983534 -7.18274911 9.37560199 -5.37890625 5.375 C-3.89313729 2.81594185 -2.46494611 1.59096309 0 0 Z " fill="#7B0302" transform="translate(207,85)"/>
<path d="M0 0 C0.66 0.33 1.32 0.66 2 1 C1.505 1.763125 1.01 2.52625 0.5 3.3125 C-1.24368308 5.92363751 -1.24368308 5.92363751 -1 9 C0.32 9.33 1.64 9.66 3 10 C1.56570999 10.67354499 0.12742943 11.33859701 -1.3125 12 C-2.51326172 12.556875 -2.51326172 12.556875 -3.73828125 13.125 C-6 14 -6 14 -9 14 C-8.59579069 8.34106967 -6.79663015 5.97742206 -3 2 C-2.01 1.34 -1.02 0.68 0 0 Z " fill="#E54E09" transform="translate(71,73)"/>
<path d="M0 0 C2.31 0.33 4.62 0.66 7 1 C7.33 2.32 7.66 3.64 8 5 C4.42914986 6.19028338 1.1539317 6.18398398 -2.5625 6.1875 C-3.24763672 6.19974609 -3.93277344 6.21199219 -4.63867188 6.22460938 C-6.42734112 6.22987533 -8.21548848 6.12200021 -10 6 C-10.66 5.34 -11.32 4.68 -12 4 C-7.8803623 2.70756464 -4.33168317 1.73747375 0 2 C0 1.34 0 0.68 0 0 Z " fill="#740100" transform="translate(133,67)"/>
<path d="M0 0 C0.99 0.33 1.98 0.66 3 1 C3 1.66 3 2.32 3 3 C4.134375 3.268125 5.26875 3.53625 6.4375 3.8125 C7.613125 4.204375 8.78875 4.59625 10 5 C10.33 5.99 10.66 6.98 11 8 C14.61847823 10.39404368 19.12988484 11.37295087 23.25 12.625 C23.99507812 12.85445312 24.74015625 13.08390625 25.5078125 13.3203125 C27.3375871 13.88332007 29.16866703 14.44208228 31 15 C31 15.33 31 15.66 31 16 C20.4651311 16.16991724 10.65824448 11.3031131 2.625 4.6875 C0 2 0 2 0 0 Z " fill="#E45D02" transform="translate(153,178)"/>
<path d="M0 0 C0 0.66 0 1.32 0 2 C2.97 2 5.94 2 9 2 C9 2.33 9 2.66 9 3 C8.39003174 3.08564209 7.78006348 3.17128418 7.15161133 3.25952148 C4.37169549 3.65069064 1.59209736 4.04407444 -1.1875 4.4375 C-2.62706055 4.63956055 -2.62706055 4.63956055 -4.09570312 4.84570312 C-5.49272461 5.04389648 -5.49272461 5.04389648 -6.91796875 5.24609375 C-8.19837036 5.42676392 -8.19837036 5.42676392 -9.50463867 5.61108398 C-12.02066964 6.00322148 -14.50697664 6.48265373 -17 7 C-17 6.01 -17 5.02 -17 4 C-14.73050898 3.32844651 -12.4596039 2.6626037 -10.1875 2 C-8.92292969 1.62875 -7.65835938 1.2575 -6.35546875 0.875 C-3 0 -3 0 0 0 Z " fill="#DE722D" transform="translate(105,146)"/>
<path d="M0 0 C0.99 0 1.98 0 3 0 C3 1.32 3 2.64 3 4 C2.34 4 1.68 4 1 4 C0.67 8.62 0.34 13.24 0 18 C-1.32 18 -2.64 18 -4 18 C-3.7159949 15.93643105 -3.42246648 13.8741715 -3.125 11.8125 C-2.96257812 10.66394531 -2.80015625 9.51539062 -2.6328125 8.33203125 C-2.05939755 5.31275375 -1.25240957 2.79424152 0 0 Z " fill="#B21D06" transform="translate(92,112)"/>
<path d="M0 0 C0.80824219 0.10183594 1.61648437 0.20367187 2.44921875 0.30859375 C3.06410156 0.39238281 3.67898437 0.47617188 4.3125 0.5625 C4.6425 1.5525 4.9725 2.5425 5.3125 3.5625 C1.9105513 5.65600689 -0.74022412 5.74192163 -4.6875 5.5625 C-4.6875 4.9025 -4.6875 4.2425 -4.6875 3.5625 C-6.0075 3.2325 -7.3275 2.9025 -8.6875 2.5625 C-6.80760684 -1.19728632 -3.63897564 -0.474649 0 0 Z " fill="#DD4608" transform="translate(230.6875,93.4375)"/>
<path d="M0 0 C0 0.33 0 0.66 0 1 C-1.65 1 -3.3 1 -5 1 C-4.67 2.65 -4.34 4.3 -4 6 C-8.455 6.495 -8.455 6.495 -13 7 C-13 6.01 -13 5.02 -13 4 C-13.66 4 -14.32 4 -15 4 C-15 3.34 -15 2.68 -15 2 C-9.77487721 0.53329887 -5.4185766 -0.22577402 0 0 Z " fill="#850101" transform="translate(97,72)"/>
<path d="M0 0 C1.19882813 0.15275391 1.19882813 0.15275391 2.421875 0.30859375 C3.02515625 0.39238281 3.6284375 0.47617188 4.25 0.5625 C4.085 1.14 3.92 1.7175 3.75 2.3125 C3.10537969 4.82914369 3.10537969 4.82914369 3.25 8.5625 C1.6 8.2325 -0.05 7.9025 -1.75 7.5625 C-1.42 6.2425 -1.09 4.9225 -0.75 3.5625 C-3.72 3.2325 -6.69 2.9025 -9.75 2.5625 C-8.75 0.5625 -8.75 0.5625 -6.984375 -0.08984375 C-4.5100683 -0.47483203 -2.47863829 -0.32805507 0 0 Z " fill="#9E0602" transform="translate(220.75,110.4375)"/>
<path d="M0 0 C-1.62339805 1.70884005 -3.29319053 3.37446717 -5 5 C-5.66 5 -6.32 5 -7 5 C-7 5.66 -7 6.32 -7 7 C-9.31 6.34 -11.62 5.68 -14 5 C-14 4.01 -14 3.02 -14 2 C-9.35150485 -0.3992233 -5.08913926 -0.19957409 0 0 Z " fill="#E45309" transform="translate(79,45)"/>
<path d="M0 0 C5.77807024 -0.2358396 10.51324804 0.13216954 16 2 C16 2.33 16 2.66 16 3 C12 4.33333333 8 5.66666667 4 7 C4 6.34 4 5.68 4 5 C3.01 4.67 2.02 4.34 1 4 C0.3125 1.9375 0.3125 1.9375 0 0 Z " fill="#5E0103" transform="translate(92,73)"/>
<path d="M0 0 C3 1 3 1 3.89135742 2.76586914 C4.12701416 3.51473389 4.3626709 4.26359863 4.60546875 5.03515625 C4.86650391 5.84404297 5.12753906 6.65292969 5.39648438 7.48632812 C5.78803711 8.7615332 5.78803711 8.7615332 6.1875 10.0625 C6.46013672 10.91650391 6.73277344 11.77050781 7.01367188 12.65039062 C7.68664255 14.76375469 8.34816676 16.88003968 9 19 C8.01 19.33 7.02 19.66 6 20 C0 6.85714286 0 6.85714286 0 0 Z " fill="#AC1907" transform="translate(202,118)"/>
<path d="M0 0 C2.31 0 4.62 0 7 0 C7.33 0.99 7.66 1.98 8 3 C-0.261959 7.59225513 -0.261959 7.59225513 -5 7 C-4.34 5.68 -3.68 4.36 -3 3 C-2.34 3 -1.68 3 -1 3 C-0.67 2.01 -0.34 1.02 0 0 Z " fill="#C42C03" transform="translate(175,115)"/>
<path d="M0 0 C1.109375 1.55078125 1.109375 1.55078125 2 4 C1.390625 7.41796875 1.390625 7.41796875 0.25 11.1875 C-0.29914063 13.06501953 -0.29914063 13.06501953 -0.859375 14.98046875 C-2 18 -2 18 -4 19 C-4.09038099 13.84828377 -3.84681133 9.08086796 -3 4 C-2.34 4 -1.68 4 -1 4 C-0.67 2.68 -0.34 1.36 0 0 Z " fill="#58010B" transform="translate(96,112)"/>
<path d="M0 0 C2 2 2 2 2 5 C2.99 5.33 3.98 5.66 5 6 C5.6875 8.0625 5.6875 8.0625 6 10 C1.25 10.125 1.25 10.125 -1 9 C-1.33 11.31 -1.66 13.62 -2 16 C-2.33 16 -2.66 16 -3 16 C-3.33 13.03 -3.66 10.06 -4 7 C-3.01 6.34 -2.02 5.68 -1 5 C-1.66 4.34 -2.32 3.68 -3 3 C-2.01 2.01 -1.02 1.02 0 0 Z " fill="#D7560E" transform="translate(148,74)"/>
<path d="M0 0 C-1.14192783 1.14192783 -2.28449238 2.28322385 -3.4296875 3.421875 C-4.57015032 4.56801177 -5.69887306 5.72586815 -6.8203125 6.890625 C-7.43648438 7.52484375 -8.05265625 8.1590625 -8.6875 8.8125 C-9.26886719 9.41707031 -9.85023437 10.02164063 -10.44921875 10.64453125 C-12 12 -12 12 -14 12 C-14 10.35 -14 8.7 -14 7 C-13.34 7.66 -12.68 8.32 -12 9 C-11.01 7.68 -10.02 6.36 -9 5 C-9.66 5 -10.32 5 -11 5 C-10.67 3.35 -10.34 1.7 -10 0 C-2.25 -1.125 -2.25 -1.125 0 0 Z " fill="#7E0202" transform="translate(129,54)"/>
<path d="M0 0 C1.5 1.3125 1.5 1.3125 3 3 C3.556875 3.53625 4.11375 4.0725 4.6875 4.625 C6 6 6 6 6 7 C0.57960425 7.40652968 -3.07015675 6.03993514 -8 4 C-6.27302455 0.54604909 -3.70696841 0 0 0 Z " fill="#670102" transform="translate(194,107)"/>
<path d="M0 0 C2.40820361 2.40820361 2.68097423 3.65022937 3 7 C2.0625 9.3125 2.0625 9.3125 1 11 C2.32 11.33 3.64 11.66 5 12 C4.34 12.66 3.68 13.32 3 14 C3.99 14.66 4.98 15.32 6 16 C2.37 15.67 -1.26 15.34 -5 15 C-4.01 14.34 -3.02 13.68 -2 13 C-1.19458793 9.89188713 -1.19458793 9.89188713 -0.8125 6.375 C-0.65394531 5.18648438 -0.49539062 3.99796875 -0.33203125 2.7734375 C-0.22246094 1.85820313 -0.11289063 0.94296875 0 0 Z " fill="#BE4608" transform="translate(181,80)"/>
<path d="M0 0 C1.32 0.33 2.64 0.66 4 1 C3.67 2.32 3.34 3.64 3 5 C3.66 5 4.32 5 5 5 C5 6.32 5 7.64 5 9 C3.02 9 1.04 9 -1 9 C-2.0326802 6.21176345 -2.04509293 5.1322726 -1.0625 2.25 C-0.711875 1.5075 -0.36125 0.765 0 0 Z " fill="#F3F2F3" transform="translate(160,252)"/>
<path d="M0 0 C0.99 0.33 1.98 0.66 3 1 C2.34 1.94875 1.68 2.8975 1 3.875 C-1.17968457 6.66238955 -1.17968457 6.66238955 -1 9 C-2.96466413 10.06775224 -4.96855359 11.06553465 -7 12 C-7.66 11.67 -8.32 11.34 -9 11 C-8.06558465 9.72689688 -7.12732889 8.456612 -6.1875 7.1875 C-5.66542969 6.47980469 -5.14335937 5.77210937 -4.60546875 5.04296875 C-3.16871123 3.21468607 -1.68184237 1.60103312 0 0 Z " fill="#5D0104" transform="translate(213,102)"/>
<path d="M0 0 C0.5775 0.37125 1.155 0.7425 1.75 1.125 C4 2.29166667 4 2.29166667 6.25 1.125 C6.8275 0.75375 7.405 0.3825 8 0 C6.6957672 3.9126984 5.21065261 6.37310241 2 9 C1.01 9 0.02 9 -1 9 C-1.09765625 2.84765625 -1.09765625 2.84765625 -1 1 C-0.67 0.67 -0.34 0.34 0 0 Z " fill="#B22805" transform="translate(85,97)"/>
<path d="M0 0 C0.66 0 1.32 0 2 0 C1.34 1.32 0.68 2.64 0 4 C-0.66 4 -1.32 4 -2 4 C-2.144375 4.61875 -2.28875 5.2375 -2.4375 5.875 C-3 8 -3 8 -4 10 C-5.64551962 10.71727778 -7.31422289 11.38325228 -9 12 C-9.99 12.495 -9.99 12.495 -11 13 C-9.15979887 6.95362487 -7.33213099 5.19927859 -2 2 C-1.34 1.34 -0.68 0.68 0 0 Z " fill="#820502" transform="translate(99,87)"/>
<path d="M0 0 C0.66 0 1.32 0 2 0 C2.66 0.99 3.32 1.98 4 3 C4.66 3.33 5.32 3.66 6 4 C5.34 5.65 4.68 7.3 4 9 C5.32 8.67 6.64 8.34 8 8 C6.35 9.98 4.7 11.96 3 14 C0.81005752 10.71508627 0.64722661 9.16904361 0.375 5.3125 C0.30023438 4.31863281 0.22546875 3.32476562 0.1484375 2.30078125 C0.09945312 1.54152344 0.05046875 0.78226563 0 0 Z " fill="#5C0102" transform="translate(114,50)"/>
<path d="M0 0 C1.32 0.33 2.64 0.66 4 1 C4.98120464 4.05263664 4.98120464 5.94736336 4 9 C2.35 9 0.7 9 -1 9 C-1.80967438 6.08517222 -2.21845993 4.53886783 -1.0625 1.6875 C-0.711875 1.130625 -0.36125 0.57375 0 0 Z M1 2 C1 2.66 1 3.32 1 4 C1.66 3.67 2.32 3.34 3 3 C2.34 2.67 1.68 2.34 1 2 Z " fill="#F5F3F5" transform="translate(172,252)"/>
<path d="M0 0 C0.98484375 0.00902344 1.9696875 0.01804688 2.984375 0.02734375 C4.10585937 0.04474609 4.10585937 0.04474609 5.25 0.0625 C1.78471911 3.52778089 -2.91086116 4.94755382 -7.75 5.25 C-8.41 5.188125 -9.07 5.12625 -9.75 5.0625 C-9.75 3.7425 -9.75 2.4225 -9.75 1.0625 C-6.43929162 0.06140485 -3.44915231 -0.04106134 0 0 Z " fill="#D13803" transform="translate(146.75,48.9375)"/>
<path d="M0 0 C0.33 0.66 0.66 1.32 1 2 C2.98 2 4.96 2 7 2 C6.67 2.66 6.34 3.32 6 4 C5.01 4.309375 4.02 4.61875 3 4.9375 C1.515 5.4634375 1.515 5.4634375 0 6 C-0.33 6.99 -0.66 7.98 -1 9 C-1.66 9 -2.32 9 -3 9 C-3.66 6.69 -4.32 4.38 -5 2 C-3.35 1.34 -1.7 0.68 0 0 Z " fill="#DC5312" transform="translate(77,154)"/>
<path d="M0 0 C2.625 0.9375 2.625 0.9375 5 2 C5 4.31 5 6.62 5 9 C4.01 8.67 3.02 8.34 2 8 C2 7.34 2 6.68 2 6 C1.34 6 0.68 6 0 6 C0 6.99 0 7.98 0 9 C-0.66 9 -1.32 9 -2 9 C-2 6.36 -2 3.72 -2 1 C-1.34 0.67 -0.68 0.34 0 0 Z M0 2 C0 2.66 0 3.32 0 4 C0.99 3.67 1.98 3.34 3 3 C2.01 2.67 1.02 2.34 0 2 Z " fill="#F8F7F8" transform="translate(109,252)"/>
<path d="M0 0 C4.29 0.33 8.58 0.66 13 1 C12.67 1.99 12.34 2.98 12 4 C11.01 4 10.02 4 9 4 C9.33 5.65 9.66 7.3 10 9 C8.8944811 8.06409496 7.79064547 7.12620142 6.6875 6.1875 C6.07261719 5.66542969 5.45773438 5.14335938 4.82421875 4.60546875 C3.15530589 3.13668249 1.57203741 1.57203741 0 0 Z " fill="#600101" transform="translate(110,76)"/>
<path d="M0 0 C2.625 0.9375 2.625 0.9375 5 2 C4.67 4.31 4.34 6.62 4 9 C1.625 9.125 1.625 9.125 -1 9 C-1.66 8.34 -2.32 7.68 -3 7 C-2.75 3.9375 -2.75 3.9375 -2 1 C-1.34 0.67 -0.68 0.34 0 0 Z M0 2 C-0.33 3.32 -0.66 4.64 -1 6 C0.32 6.33 1.64 6.66 3 7 C2.67 5.35 2.34 3.7 2 2 C1.34 2 0.68 2 0 2 Z " fill="#F9F5F9" transform="translate(133,252)"/>
<path d="M0 0 C5.94 0 11.88 0 18 0 C18 0.66 18 1.32 18 2 C14.37 2.66 10.74 3.32 7 4 C6.67 3.01 6.34 2.02 6 1 C4.02 1 2.04 1 0 1 C0 0.67 0 0.34 0 0 Z " fill="#A20201" transform="translate(176,114)"/>
<path d="M0 0 C2.54344286 2.27301934 3.87616437 4.45086481 5.25 7.5625 C5.60578125 8.34753906 5.9615625 9.13257812 6.328125 9.94140625 C7 12 7 12 6 14 C3.43692726 11.48166917 1.03320516 8.96996983 -1 6 C-0.9375 2.5 -0.9375 2.5 0 0 Z " fill="#CB3205" transform="translate(125,96)"/>
<path d="M0 0 C1.98 0 3.96 0 6 0 C6.82638376 2.89234315 7 4.88742431 7 8 C5 8 5 8 3.375 6.5 C2.92125 6.005 2.4675 5.51 2 5 C2 5.99 2 6.98 2 8 C1.34 8 0.68 8 0 8 C0 5.36 0 2.72 0 0 Z M2 1 C2 1.66 2 2.32 2 3 C2.99 2.67 3.98 2.34 5 2 C4.01 1.67 3.02 1.34 2 1 Z " fill="#F0EFF0" transform="translate(139,253)"/>
<path d="M0 0 C0 2.64 0 5.28 0 8 C-1.98 8 -3.96 8 -6 8 C-5.67 7.01 -5.34 6.02 -5 5 C-5.33 4.67 -5.66 4.34 -6 4 C-6 2.68 -6 1.36 -6 0 C-3.50907189 -1.24546405 -2.58919267 -0.7767578 0 0 Z M-4 1 C-4 1.66 -4 2.32 -4 3 C-3.34 3 -2.68 3 -2 3 C-2 2.34 -2 1.68 -2 1 C-2.66 1 -3.32 1 -4 1 Z " fill="#F9F9F9" transform="translate(129,253)"/>
<path d="M0 0 C2.31 0 4.62 0 7 0 C7 0.33 7 0.66 7 1 C5.35 1 3.7 1 2 1 C2 1.66 2 2.32 2 3 C3.32 3 4.64 3 6 3 C6.33 4.65 6.66 6.3 7 8 C4.69 8 2.38 8 0 8 C0 5.36 0 2.72 0 0 Z " fill="#F4F2F4" transform="translate(115,253)"/>
<path d="M0 0 C0.99 0.33 1.98 0.66 3 1 C2.67 1.99 2.34 2.98 2 4 C1.34 4 0.68 4 0 4 C-0.33 4.99 -0.66 5.98 -1 7 C-1.66 7 -2.32 7 -3 7 C-3.33 9.31 -3.66 11.62 -4 14 C-4.33 14 -4.66 14 -5 14 C-5.05391993 12.20866022 -5.09275571 10.41686101 -5.125 8.625 C-5.14820313 7.62726563 -5.17140625 6.62953125 -5.1953125 5.6015625 C-5 3 -5 3 -3 1 C-2.67 2.32 -2.34 3.64 -2 5 C-1.34 3.35 -0.68 1.7 0 0 Z " fill="#630104" transform="translate(207,99)"/>
<path d="M0 0 C0.886875 0.103125 1.77375 0.20625 2.6875 0.3125 C3.3475 1.9625 4.0075 3.6125 4.6875 5.3125 C0.3975 5.3125 -3.8925 5.3125 -8.3125 5.3125 C-4.12788462 0.38942308 -4.12788462 0.38942308 0 0 Z " fill="#C44D04" transform="translate(164.3125,62.6875)"/>
<path d="M0 0 C2.475 0.495 2.475 0.495 5 1 C5.103125 1.61875 5.20625 2.2375 5.3125 2.875 C5.87525373 5.36526484 5.87525373 5.36526484 9 7 C9 7.66 9 8.32 9 9 C5.2241456 8.47557578 2.77627845 7.67345333 0 5 C0 3.33333333 0 1.66666667 0 0 Z " fill="#830403" transform="translate(85,52)"/>
<path d="M0 0 C0 0.66 0 1.32 0 2 C-3.4766338 4.14336161 -6.21229195 4.21277626 -10.25 4.125 C-11.32765625 4.10695313 -12.4053125 4.08890625 -13.515625 4.0703125 C-14.33546875 4.04710937 -15.1553125 4.02390625 -16 4 C-11.47217435 -0.83919475 -6.26422575 -0.10617332 0 0 Z " fill="#B72803" transform="translate(144,46)"/>
<path d="M0 0 C4.87362847 0.45336079 7.39042389 1.7089159 11 5 C9.63875 4.9690625 9.63875 4.9690625 8.25 4.9375 C5.57327412 4.9889755 3.53011948 5.2215017 1 6 C0.67 4.02 0.34 2.04 0 0 Z " fill="#D42D06" transform="translate(95,33)"/>
<path d="M0 0 C0.33 0.66 0.66 1.32 1 2 C1.99 2.33 2.98 2.66 4 3 C4.33 3.99 4.66 4.98 5 6 C3.68 6 2.36 6 1 6 C1 5.34 1 4.68 1 4 C-0.1446875 4.495 -0.1446875 4.495 -1.3125 5 C-4 6 -4 6 -7 6 C-6.875 4.125 -6.875 4.125 -6 2 C-2.9375 0.75 -2.9375 0.75 0 0 Z " fill="#B61D04" transform="translate(222,94)"/>
<path d="M0 0 C3.16115776 1.36983503 3.9927092 1.9890638 6 5 C6 5.99 6 6.98 6 8 C4.35 7.67 2.7 7.34 1 7 C1 6.34 1 5.68 1 5 C0.34 5 -0.32 5 -1 5 C-0.67 3.35 -0.34 1.7 0 0 Z " fill="#E14D0A" transform="translate(232,116)"/>
<path d="M0 0 C0 0.33 0 0.66 0 1 C3.63 1.33 7.26 1.66 11 2 C11 2.33 11 2.66 11 3 C4.4 3.33 -2.2 3.66 -9 4 C-9 3.34 -9 2.68 -9 2 C-3.375 -1.125 -3.375 -1.125 0 0 Z " fill="#890A02" transform="translate(183,111)"/>
<path d="M0 0 C2.52259061 1.97420135 2.9929808 2.96745642 3.6875 6.1875 C3.790625 7.115625 3.89375 8.04375 4 9 C3.34 9 2.68 9 2 9 C2 8.34 2 7.68 2 7 C1.01 7 0.02 7 -1 7 C-1 7.66 -1 8.32 -1 9 C-1.66 9 -2.32 9 -3 9 C-2.44271087 5.65626525 -1.64826111 2.96687001 0 0 Z " fill="#F9F6F9" transform="translate(188,252)"/>
<path d="M0 0 C4.62 0.66 9.24 1.32 14 2 C14 2.66 14 3.32 14 4 C12.10424749 4.02721176 10.20838021 4.04649136 8.3125 4.0625 C6.72888672 4.07990234 6.72888672 4.07990234 5.11328125 4.09765625 C2.27589738 4.00865425 -0.2438919 3.64939838 -3 3 C-2.01 2.67 -1.02 2.34 0 2 C0 1.34 0 0.68 0 0 Z " fill="#E2894C" transform="translate(180,176)"/>
<path d="M0 0 C0.99 0 1.98 0 3 0 C2.29445932 3.66881155 0.72264494 6.70450534 -1 10 C-1.99 9.67 -2.98 9.34 -4 9 C-2.94124926 5.59687262 -1.99097846 2.98646769 0 0 Z " fill="#B11C06" transform="translate(104,86)"/>
<path d="M0 0 C0.66 0.66 1.32 1.32 2 2 C0.68 3.65 -0.64 5.3 -2 7 C-2.33 6.67 -2.66 6.34 -3 6 C-2.67 8.31 -2.34 10.62 -2 13 C-5.67230705 9.92000054 -6.56802365 7.7517398 -7 3 C-5.68 3 -4.36 3 -3 3 C-1.2488427 1.5833253 -1.2488427 1.5833253 0 0 Z " fill="#720101" transform="translate(125,76)"/>
<path d="M0 0 C0.99 0.33 1.98 0.66 3 1 C3 5.29 3 9.58 3 14 C1 12 1 12 0.875 9.375 C0.91625 8.59125 0.9575 7.8075 1 7 C0.01 6.67 -0.98 6.34 -2 6 C-1.34 4.02 -0.68 2.04 0 0 Z " fill="#640003" transform="translate(108,55)"/>
<path d="M0 0 C1.98 0 3.96 0 6 0 C6.33 1.32 6.66 2.64 7 4 C5.35 4.33 3.7 4.66 2 5 C2 5.99 2 6.98 2 8 C1.34 8 0.68 8 0 8 C0 5.36 0 2.72 0 0 Z M2 1 C2 1.66 2 2.32 2 3 C2.99 2.67 3.98 2.34 5 2 C4.01 1.67 3.02 1.34 2 1 Z " fill="#FAF9FA" transform="translate(178,253)"/>
<path d="M0 0 C0.99 0 1.98 0 3 0 C2.67 5.28 2.34 10.56 2 16 C1.34 15.67 0.68 15.34 0 15 C0 10.05 0 5.1 0 0 Z " fill="#FBB52B" transform="translate(166,225)"/>
<path d="M0 0 C0.33 1.32 0.66 2.64 1 4 C1.99 4 2.98 4 4 4 C3.67 5.98 3.34 7.96 3 10 C2.67 9.34 2.34 8.68 2 8 C0.68 8.99 -0.64 9.98 -2 11 C-2.25 3.375 -2.25 3.375 0 0 Z " fill="#A91503" transform="translate(190,125)"/>
<path d="M0 0 C1.93719378 -0.05406122 3.87481921 -0.09282025 5.8125 -0.125 C6.89144531 -0.14820313 7.97039062 -0.17140625 9.08203125 -0.1953125 C12 0 12 0 15 2 C11.24464902 4.50356732 10.13110586 3.9608592 5.8125 3.125 C4.72582031 2.92132813 3.63914063 2.71765625 2.51953125 2.5078125 C1.68808594 2.34023437 0.85664063 2.17265625 0 2 C0 1.34 0 0.68 0 0 Z " fill="#F38203" transform="translate(187,190)"/>
<path d="M0 0 C0.33 0.66 0.66 1.32 1 2 C-0.12104533 3.31587941 -1.24696965 4.62760353 -2.375 5.9375 C-3.00148438 6.66839844 -3.62796875 7.39929688 -4.2734375 8.15234375 C-6 10 -6 10 -8 11 C-8.33 10.34 -8.66 9.68 -9 9 C-9.66 8.67 -10.32 8.34 -11 8 C-10.34 7.01 -9.68 6.02 -9 5 C-9 5.66 -9 6.32 -9 7 C-5.46627288 5.03681826 -2.75520215 2.95929119 0 0 Z " fill="#730304" transform="translate(106,95)"/>
<path d="M0 0 C1.5625 1 1.5625 1 3 3 C2.96726452 5.76614782 2.49404328 8.26030547 2 11 C1.34 11 0.68 11 0 11 C-0.99 8.36 -1.98 5.72 -3 3 C-2.01 3 -1.02 3 0 3 C0 2.01 0 1.02 0 0 Z " fill="#8B0504" transform="translate(103,43)"/>
<path d="M0 0 C2.31 0.33 4.62 0.66 7 1 C7.33 2.98 7.66 4.96 8 7 C5.03 6.505 5.03 6.505 2 6 C1.34 4.02 0.68 2.04 0 0 Z " fill="#A71803" transform="translate(79,50)"/>
<path d="M0 0 C8.57142857 -0.14285714 8.57142857 -0.14285714 12 1 C12 1.66 12 2.32 12 3 C13.32 3.33 14.64 3.66 16 4 C13.37684968 5.31157516 11.76966564 4.89649988 8.875 4.5625 C7.96492187 4.46066406 7.05484375 4.35882813 6.1171875 4.25390625 C5.41851562 4.17011719 4.71984375 4.08632813 4 4 C4.66 3.67 5.32 3.34 6 3 C6 2.34 6 1.68 6 1 C4.02 1 2.04 1 0 1 C0 0.67 0 0.34 0 0 Z " fill="#A22007" transform="translate(138,45)"/>
<path d="M0 0 C0.99 0.33 1.98 0.66 3 1 C1.23304141 2.96195402 -0.53831789 4.91959627 -2.3125 6.875 C-2.81201172 7.43058594 -3.31152344 7.98617187 -3.82617188 8.55859375 C-6.1087156 11.06788023 -8.16360168 13.10906778 -11 15 C-9.24238869 10.96104472 -6.66407963 8.61871787 -3.4609375 5.68359375 C-1.67230129 3.99387231 -1.67230129 3.99387231 -2 1 C-1.34 0.67 -0.68 0.34 0 0 Z " fill="#FBCB14" transform="translate(216,174)"/>
<path d="M0 0 C-1 2 -1 2 -3.1796875 2.81640625 C-4.06914062 3.06261719 -4.95859375 3.30882813 -5.875 3.5625 C-6.75929687 3.81128906 -7.64359375 4.06007813 -8.5546875 4.31640625 C-9.36164063 4.54199219 -10.16859375 4.76757812 -11 5 C-11.99 5.33 -12.98 5.66 -14 6 C-13.08486681 3.71216703 -12.34515354 2.26550272 -10.375 0.75 C-6.86146845 -0.35953628 -3.67700382 -0.12256679 0 0 Z " fill="#720403" transform="translate(227,92)"/>
<path d="M0 0 C-1.65 1.98 -3.3 3.96 -5 6 C-5.33 5.01 -5.66 4.02 -6 3 C-7.98 3.99 -7.98 3.99 -10 5 C-10 3.68 -10 2.36 -10 1 C-6.59437148 0.22157062 -3.49234244 -0.09978121 0 0 Z " fill="#5B0102" transform="translate(202,116)"/>
<path d="M0 0 C0.33 1.32 0.66 2.64 1 4 C1.66 4 2.32 4 3 4 C3 6.31 3 8.62 3 11 C-0.03520175 9.23762479 -0.89045606 8.38340378 -1.875 4.9375 C-1.91625 3.968125 -1.9575 2.99875 -2 2 C-1.34 1.34 -0.68 0.68 0 0 Z " fill="#F6B048" transform="translate(151,71)"/>
<path d="M0 0 C1.32 0.33 2.64 0.66 4 1 C4 1.99 4 2.98 4 4 C0.38132441 5.2062252 -2.92506251 5.10816918 -6.6875 5.0625 C-7.38939453 5.05798828 -8.09128906 5.05347656 -8.81445312 5.04882812 C-10.54300538 5.03706927 -12.27151365 5.01913454 -14 5 C-14 4.67 -14 4.34 -14 4 C-9.05 3.34 -4.1 2.68 1 2 C0.67 1.34 0.34 0.68 0 0 Z " fill="#870601" transform="translate(137,68)"/>
<path d="M0 0 C0.33 0.66 0.66 1.32 1 2 C4.96 2 8.92 2 13 2 C13 2.33 13 2.66 13 3 C9.37 3 5.74 3 2 3 C1.67 4.32 1.34 5.64 1 7 C0.01 7 -0.98 7 -2 7 C-1.125 2.25 -1.125 2.25 0 0 Z " fill="#F2B638" transform="translate(220,236)"/>
<path d="M0 0 C0.33 0.33 0.66 0.66 1 1 C3.32817964 1.36760731 5.6618385 1.70241581 8 2 C8 2.33 8 2.66 8 3 C3.05 3 -1.9 3 -7 3 C-7.33 2.34 -7.66 1.68 -8 1 C-5.05549278 0.01849759 -3.06481021 -0.1613058 0 0 Z " fill="#E98941" transform="translate(118,144)"/>
<path d="M0 0 C1.34313399 0.64669414 2.67391178 1.31903578 4 2 C4.886875 2.45375 5.77375 2.9075 6.6875 3.375 C9 5 9 5 9.8125 7.1875 C9.874375 7.785625 9.93625 8.38375 10 9 C8.68 9 7.36 9 6 9 C4.296875 7.28515625 4.296875 7.28515625 2.75 5.0625 C2.22921875 4.33160156 1.7084375 3.60070312 1.171875 2.84765625 C0 1 0 1 0 0 Z " fill="#710102" transform="translate(206,120)"/>
<path d="M0 0 C0.66 0.66 1.32 1.32 2 2 C1.01 4.64 0.02 7.28 -1 10 C-1.99 10 -2.98 10 -4 10 C-3.5205537 5.78087253 -2.83374881 3.20336822 0 0 Z " fill="#9F0201" transform="translate(203,94)"/>
<path d="M0 0 C-0.33 0.99 -0.66 1.98 -1 3 C-2.134375 3.12375 -3.26875 3.2475 -4.4375 3.375 C-6.2009375 3.684375 -6.2009375 3.684375 -8 4 C-8.33 4.66 -8.66 5.32 -9 6 C-9.66 6 -10.32 6 -11 6 C-10.8125 4.125 -10.8125 4.125 -10 2 C-6.62176024 0.12320013 -3.82367701 -0.21849583 0 0 Z " fill="#F7B851" transform="translate(180,91)"/>
<path d="M0 0 C-2.36292656 2.52588702 -3.66462511 3.88820837 -7 5 C-6.67 6.32 -6.34 7.64 -6 9 C-6.66 9 -7.32 9 -8 9 C-9.3260274 3.57534247 -9.3260274 3.57534247 -7.9375 1.125 C-5.24099753 -0.44071111 -3.05869541 -0.20391303 0 0 Z " fill="#CA3205" transform="translate(87,46)"/>
<path d="M0 0 C0.99 0 1.98 0 3 0 C3.33 1.65 3.66 3.3 4 5 C0.25 8 0.25 8 -2 8 C-1.34 5.36 -0.68 2.72 0 0 Z " fill="#9B1E00" transform="translate(181,101)"/>
<path d="M0 0 C4.8 2.46153846 4.8 2.46153846 5.8125 5.1875 C5.874375 5.785625 5.93625 6.38375 6 7 C2.62496331 5.8141763 0.35277269 4.72426311 -2 2 C-1.34 1.34 -0.68 0.68 0 0 Z " fill="#9E0302" transform="translate(190,101)"/>
<path d="M0 0 C0.99 0 1.98 0 3 0 C4.4783226 2.95664519 4.06032783 5.74229737 4 9 C3.01 8.67 2.02 8.34 1 8 C0.67 5.36 0.34 2.72 0 0 Z " fill="#C12D06" transform="translate(218,129)"/>
<path d="M0 0 C-0.66 1.98 -1.32 3.96 -2 6 C-4 6 -6 6 -8 6 C-6.98565881 3.46414701 -6.34981128 2.21863205 -4 0.75 C-2 0 -2 0 0 0 Z " fill="#C32B05" transform="translate(213,85)"/>
<path d="M0 0 C2.33944736 0.28730055 4.6739143 0.61936779 7 1 C7 1.99 7 2.98 7 4 C2.25 5.125 2.25 5.125 0 4 C-0.33 4.66 -0.66 5.32 -1 6 C-1.042721 4.33388095 -1.04063832 2.66617115 -1 1 C-0.67 0.67 -0.34 0.34 0 0 Z " fill="#F9B242" transform="translate(147,82)"/>
<path d="M0 0 C1.32 0 2.64 0 4 0 C6.1519437 3.22791555 6.20086443 4.28400809 6 8 C1.125 3.375 1.125 3.375 0 0 Z " fill="#900E04" transform="translate(213,128)"/>
<path d="M0 0 C3.16115776 1.36983503 3.9927092 1.9890638 6 5 C3.36 5 0.72 5 -2 5 C-1.34 3.35 -0.68 1.7 0 0 Z " fill="#540102" transform="translate(95,64)"/>
<path d="M0 0 C0.66 0.33 1.32 0.66 2 1 C2 4.57575896 0.91159393 6.05295935 -1 9 C-1.99 8.67 -2.98 8.34 -4 8 C-2.87548273 5.0280615 -1.77706209 2.66559313 0 0 Z " fill="#FAB535" transform="translate(79,225)"/>
<path d="M0 0 C7.75 -0.125 7.75 -0.125 10 1 C10 1.66 10 2.32 10 3 C7.69 3.33 5.38 3.66 3 4 C2.01 2.68 1.02 1.36 0 0 Z " fill="#DA5009" transform="translate(171,96)"/>
<path d="M0 0 C2.0625 0.4375 2.0625 0.4375 4 1 C4.33 2.32 4.66 3.64 5 5 C3.35 5 1.7 5 0 5 C-0.5625 3.0625 -0.5625 3.0625 -1 1 C-0.67 0.67 -0.34 0.34 0 0 Z " fill="#E75404" transform="translate(149,79)"/>
<path d="M0 0 C0 0.66 0 1.32 0 2 C1.32 2.33 2.64 2.66 4 3 C4 3.66 4 4.32 4 5 C2.02 5.33 0.04 5.66 -2 6 C-2 5.01 -2 4.02 -2 3 C-2.66 3 -3.32 3 -4 3 C-4 2.34 -4 1.68 -4 1 C-2 0 -2 0 0 0 Z " fill="#9A0502" transform="translate(86,73)"/>
<path d="M0 0 C0.66 0.99 1.32 1.98 2 3 C1.01 4.485 1.01 4.485 0 6 C-2.31 5.67 -4.62 5.34 -7 5 C-4 3 -4 3 -1 3 C-0.67 2.01 -0.34 1.02 0 0 Z " fill="#B42B01" transform="translate(147,71)"/>
<path d="M0 0 C1.32 0.33 2.64 0.66 4 1 C3.67 1.66 3.34 2.32 3 3 C2.34 3 1.68 3 1 3 C1 7.29 1 11.58 1 16 C0.67 16 0.34 16 0 16 C0 10.72 0 5.44 0 0 Z " fill="#FBB421" transform="translate(64,226)"/>
<path d="M0 0 C1.32 0.33 2.64 0.66 4 1 C4.66 3.31 5.32 5.62 6 8 C5.01 8 4.02 8 3 8 C2.01 5.36 1.02 2.72 0 0 Z " fill="#9E1006" transform="translate(205,130)"/>
<path d="M0 0 C0.99 0 1.98 0 3 0 C3 2.31 3 4.62 3 7 C1.68 7 0.36 7 -1 7 C-0.67 4.69 -0.34 2.38 0 0 Z " fill="#A81404" transform="translate(89,123)"/>
<path d="M0 0 C4.29 0 8.58 0 13 0 C9 3 9 3 6.421875 3.07421875 C5.09929687 2.88279297 5.09929687 2.88279297 3.75 2.6875 C2.85796875 2.56761719 1.9659375 2.44773438 1.046875 2.32421875 C0.37140625 2.21722656 -0.3040625 2.11023437 -1 2 C-0.67 1.34 -0.34 0.68 0 0 Z " fill="#A71902" transform="translate(127,49)"/>
<path d="M0 0 C0.66 0 1.32 0 2 0 C2.33 3.63 2.66 7.26 3 11 C2.34 11 1.68 11 1 11 C0.4254048 7.26513121 0 3.78706732 0 0 Z " fill="#AF2405" transform="translate(130,97)"/>
<path d="M0 0 C0.66 0 1.32 0 2 0 C1.62403791 2.78211944 1.32681541 4.5879284 -0.4375 6.8125 C-2 8 -2 8 -4 8 C-4 7.01 -4 6.02 -4 5 C-3.01 4.34 -2.02 3.68 -1 3 C-0.67 2.01 -0.34 1.02 0 0 Z " fill="#550204" transform="translate(101,86)"/>
<path d="M0 0 C1.98 0.66 3.96 1.32 6 2 C4.60804085 4.7839183 2.84424221 4.97898997 0 6 C-0.66 5.34 -1.32 4.68 -2 4 C-1.34 2.68 -0.68 1.36 0 0 Z " fill="#AE1003" transform="translate(90,48)"/>
<path d="M0 0 C2.31 0 4.62 0 7 0 C6.01 0.33 5.02 0.66 4 1 C4 3.31 4 5.62 4 8 C3.34 8 2.68 8 2 8 C2 5.69 2 3.38 2 1 C1.34 0.67 0.68 0.34 0 0 Z " fill="#F7F6F7" transform="translate(147,253)"/>
<path d="M0 0 C1.23666047 3.57257469 0.89093449 6.35526801 0 10 C-0.99 10.495 -0.99 10.495 -2 11 C-2.95465783 8.83032311 -3.14401212 7.43671207 -2.3984375 5.17578125 C-1.64129615 3.4315257 -0.82390802 1.71372869 0 0 Z " fill="#B02506" transform="translate(188,129)"/>
<path d="M0 0 C-0.75 1.9375 -0.75 1.9375 -2 4 C-4.125 4.75 -4.125 4.75 -6 5 C-6.33 3.68 -6.66 2.36 -7 1 C-4.53721199 -0.231394 -2.7204945 -0.07159196 0 0 Z " fill="#890D03" transform="translate(151,51)"/>
<path d="M0 0 C4.12751449 0.60698743 7.3321148 2.03810791 11 4 C11 4.66 11 5.32 11 6 C7.2089881 4.55049545 3.6125362 2.84827434 0 1 C0 0.67 0 0.34 0 0 Z " fill="#E3883A" transform="translate(136,150)"/>
<path d="M0 0 C-0.33 1.65 -0.66 3.3 -1 5 C-2.65 5 -4.3 5 -6 5 C-3.74193548 0 -3.74193548 0 0 0 Z " fill="#DA4507" transform="translate(176,117)"/>
<path d="M0 0 C3.3 0 6.6 0 10 0 C9.67 1.32 9.34 2.64 9 4 C8.01 3.67 7.02 3.34 6 3 C6 2.34 6 1.68 6 1 C4.02 1 2.04 1 0 1 C0 0.67 0 0.34 0 0 Z " fill="#AC1402" transform="translate(176,114)"/>
<path d="M0 0 C0.66 0 1.32 0 2 0 C2 2.64 2 5.28 2 8 C0 6.625 0 6.625 -2 5 C-2 4.34 -2 3.68 -2 3 C-1.34 3 -0.68 3 0 3 C0 2.01 0 1.02 0 0 Z " fill="#610202" transform="translate(197,100)"/>
<path d="M0 0 C2.97 0.33 5.94 0.66 9 1 C8.01 1.495 8.01 1.495 7 2 C7 2.99 7 3.98 7 5 C3.90837736 3.61410019 2.50816459 2.50816459 0 0 Z " fill="#4C0102" transform="translate(110,76)"/>
<path d="M0 0 C0.66 0.33 1.32 0.66 2 1 C2 3.31 2 5.62 2 8 C1.34 8 0.68 8 0 8 C-1.625 5.5 -1.625 5.5 -3 3 C-2.01 3 -1.02 3 0 3 C0 2.01 0 1.02 0 0 Z " fill="#F8F7F8" transform="translate(144,253)"/>
<path d="M0 0 C0.99 0.33 1.98 0.66 3 1 C2.25 2.9375 2.25 2.9375 1 5 C-1.125 5.75 -1.125 5.75 -3 6 C-2.34 5.67 -1.68 5.34 -1 5 C-1.33 4.01 -1.66 3.02 -2 2 C-1.34 1.34 -0.68 0.68 0 0 Z " fill="#E9AB31" transform="translate(74,233)"/>
<path d="M0 0 C-2.8125 2.0625 -2.8125 2.0625 -6 4 C-6.99 3.67 -7.98 3.34 -9 3 C-9 2.34 -9 1.68 -9 1 C-2.25 -1.125 -2.25 -1.125 0 0 Z " fill="#DE4D01" transform="translate(110,165)"/>
<path d="M0 0 C0.66 0 1.32 0 2 0 C1.75 2.875 1.75 2.875 1 6 C-1.0625 7.375 -1.0625 7.375 -3 8 C-1.125 1.125 -1.125 1.125 0 0 Z " fill="#D03904" transform="translate(190,133)"/>
<path d="M0 0 C0.66 0 1.32 0 2 0 C2.33 2.31 2.66 4.62 3 7 C2.01 7 1.02 7 0 7 C0 4.69 0 2.38 0 0 Z " fill="#B21805" transform="translate(89,131)"/>
<path d="M0 0 C0 1.65 0 3.3 0 5 C-1.32 5.33 -2.64 5.66 -4 6 C-3.625 3.5625 -3.625 3.5625 -3 1 C-1 0 -1 0 0 0 Z " fill="#B21C05" transform="translate(98,103)"/>
<path d="M0 0 C2.475 0.99 2.475 0.99 5 2 C4.67 2.99 4.34 3.98 4 5 C2.35 4.67 0.7 4.34 -1 4 C-0.67 2.68 -0.34 1.36 0 0 Z " fill="#B41503" transform="translate(185,98)"/>
<path d="M0 0 C-0.33 1.32 -0.66 2.64 -1 4 C-2.32 4.33 -3.64 4.66 -5 5 C-5 3.68 -5 2.36 -5 1 C-3 0 -3 0 0 0 Z " fill="#910A02" transform="translate(223,98)"/>
<path d="M0 0 C2.97 0 5.94 0 9 0 C6.23776722 2.76223278 3.79293383 2.57856291 0 3 C0 2.01 0 1.02 0 0 Z " fill="#E54E06" transform="translate(143,49)"/>
<path d="M0 0 C0.66 0.33 1.32 0.66 2 1 C2 2.32 2 3.64 2 5 C0.02 5 -1.96 5 -4 5 C-3.67 4.01 -3.34 3.02 -3 2 C-2.01 2.33 -1.02 2.66 0 3 C0 2.01 0 1.02 0 0 Z " fill="#F3F2F5" transform="translate(127,256)"/>
<path d="M0 0 C2.31 0.33 4.62 0.66 7 1 C3.5980513 3.09350689 0.94727588 3.17942163 -3 3 C-2.01 2.67 -1.02 2.34 0 2 C0 1.34 0 0.68 0 0 Z " fill="#870106" transform="translate(194,114)"/>
<path d="M0 0 C2.475 0.99 2.475 0.99 5 2 C4.67 3.32 4.34 4.64 4 6 C3.34 5.34 2.68 4.68 2 4 C1.01 3.67 0.02 3.34 -1 3 C-0.67 2.01 -0.34 1.02 0 0 Z " fill="#A93002" transform="translate(140,80)"/>
<path d="M0 0 C1.65 0 3.3 0 5 0 C4.67 0.99 4.34 1.98 4 3 C2.35 3 0.7 3 -1 3 C-0.67 2.01 -0.34 1.02 0 0 Z " fill="#A20D02" transform="translate(209,151)"/>
<path d="M0 0 C0 0.66 0 1.32 0 2 C-2.25 2.6875 -2.25 2.6875 -5 3 C-7.3125 1.5625 -7.3125 1.5625 -9 0 C-3.375 -1.125 -3.375 -1.125 0 0 Z " fill="#941A01" transform="translate(140,80)"/>
<path d="M0 0 C2.97 0.495 2.97 0.495 6 1 C5.01 1.33 4.02 1.66 3 2 C3 2.99 3 3.98 3 5 C2.34 5 1.68 5 1 5 C0.67 3.35 0.34 1.7 0 0 Z " fill="#D83F0C" transform="translate(95,33)"/>
</svg>
